<svg xmlns="http://www.w3.org/2000/svg" viewBox="0 0 300 200"><g id="Layer_2" data-name="Layer 2"><g id="Layer_1-2" data-name="Layer 1"><rect x="4" y="4" width="292" height="192" fill="#ca8854"/><path d="M292,8V192H8V8H292m8-8H0V200H300V0Z" fill="#203832"/><path d="M45.65,74.32H43V50.49H53.68a8.41,8.41,0,0,1,6,2.09,7.35,7.35,0,0,1,2.2,5.58,7.27,7.27,0,0,1-2.22,5.59,8.41,8.41,0,0,1-6,2.07h-8Zm0-21.28V63.3H53.5a6,6,0,0,0,4.25-1.36,5.64,5.64,0,0,0,0-7.53A6,6,0,0,0,53.5,53Z" fill="#203832"/><path d="M68.26,74.32h-2.7V50.49H77a8.3,8.3,0,0,1,5.83,2A7,7,0,0,1,85,57.94c0,3-1.24,5-3.71,6.08a10.31,10.31,0,0,1-2.05.69l6.26,9.61H82.3l-5.76-9.14H68.26Zm0-11.7H76.5q3.82,0,5.26-2.38a4.4,4.4,0,0,0,.54-2.3,4.45,4.45,0,0,0-1.55-3.58A6.1,6.1,0,0,0,76.65,53H68.26Z" fill="#203832"/><path d="M100.23,50.2A11.6,11.6,0,0,1,109,53.76a11.91,11.91,0,0,1,3.35,8.64A11.88,11.88,0,0,1,109,71a12.5,12.5,0,0,1-17.49,0,11.92,11.92,0,0,1-3.35-8.64,12,12,0,0,1,3.35-8.64A11.61,11.61,0,0,1,100.23,50.2Zm0,21.78a9,9,0,0,0,6.87-2.77,9.52,9.52,0,0,0,2.52-6.81,9.5,9.5,0,0,0-2.52-6.8,9.92,9.92,0,0,0-13.75,0,9.5,9.5,0,0,0-2.52,6.8,9.52,9.52,0,0,0,2.52,6.81A9,9,0,0,0,100.23,72Z" fill="#203832"/><path d="M130,50.49V66.44a8.89,8.89,0,0,1-1.73,5.65,7.28,7.28,0,0,1-6.05,2.52,8,8,0,0,1-5.79-2.09A7.18,7.18,0,0,1,114.27,68h2.8a4.56,4.56,0,0,0,1.48,2.7A5.39,5.39,0,0,0,122.37,72a4.5,4.5,0,0,0,4.1-1.91,7.1,7.1,0,0,0,.83-3.74V50.49Z" fill="#203832"/><path d="M138.31,53.08v8h13.25V63.7H138.31v8h14.84v2.59H135.61V50.49h17.54v2.59Z" fill="#203832"/><path d="M167.69,72a7.79,7.79,0,0,0,4.48-1.3A7.67,7.67,0,0,0,175,67.19h2.85A10.71,10.71,0,0,1,174,72.52a11.49,11.49,0,0,1-6.87,2.09A10.89,10.89,0,0,1,158.62,71a12.47,12.47,0,0,1-3.06-8.64,12.47,12.47,0,0,1,3.06-8.64,10.91,10.91,0,0,1,8.46-3.56A11.49,11.49,0,0,1,174,52.29a10.67,10.67,0,0,1,3.93,5.33H175a7.75,7.75,0,0,0-2.86-3.5,7.86,7.86,0,0,0-4.48-1.29,10.52,10.52,0,0,0-4.25.74,8.05,8.05,0,0,0-2.84,2,9.84,9.84,0,0,0-2.34,6.8,9.85,9.85,0,0,0,2.34,6.81Q163,72,167.69,72Z" fill="#203832"/><path d="M198.61,53.08H190.3V74.32h-2.7V53.08h-8.32V50.49h19.33Z" fill="#203832"/><path d="M204.73,74.32H202V50.49h2.7Z" fill="#203832"/><path d="M231.12,50.49V74.32H228L213.26,54.2V74.32h-2.7V50.49h3.14l14.72,20.05V50.49Z" fill="#203832"/><path d="M242.32,51.15a11,11,0,0,1,4.46-.95,14.32,14.32,0,0,1,4,.5,12.9,12.9,0,0,1,3.06,1.37A10.91,10.91,0,0,1,258,57h-2.95a7.72,7.72,0,0,0-3-3,8.57,8.57,0,0,0-4.37-1.1,10.52,10.52,0,0,0-4.18.74,8.33,8.33,0,0,0-2.91,2,9.67,9.67,0,0,0-2.45,6.8,9.66,9.66,0,0,0,2.41,6.81,9.43,9.43,0,0,0,12.6.68,7.2,7.2,0,0,0,2.59-5.79H247V61.65h11.2V74.32h-2.49V70.11a9.88,9.88,0,0,1-5.68,4.14,13.9,13.9,0,0,1-3.51.36,11.25,11.25,0,0,1-8-3.57,12.26,12.26,0,0,1-3.1-8.64,12.26,12.26,0,0,1,3.2-8.64A11,11,0,0,1,242.32,51.15Z" fill="#203832"/><path d="M45.28,111a3,3,0,0,0,1.74-.5,3.11,3.11,0,0,0,1.12-1.36h1.1a4.06,4.06,0,0,1-1.52,2.07A4.44,4.44,0,0,1,45,112a4.26,4.26,0,0,1-3.29-1.39,5.34,5.34,0,0,1,0-6.72A4.26,4.26,0,0,1,45,102.48a4.5,4.5,0,0,1,2.68.81,4.13,4.13,0,0,1,1.52,2.08h-1.1A3.11,3.11,0,0,0,47,104a3,3,0,0,0-1.74-.51,4.17,4.17,0,0,0-1.65.29,3.2,3.2,0,0,0-1.11.79,4.31,4.31,0,0,0,0,5.3A3.53,3.53,0,0,0,45.28,111Z" fill="#f0ece7"/><path d="M55.64,111.86v-1.09a3.39,3.39,0,0,1-.92.85,2.23,2.23,0,0,1-1.25.36,3.27,3.27,0,0,1-1.2-.2,2.52,2.52,0,0,1-.89-.59,3,3,0,0,1-.86-2.25v-4.08h1v4a2.16,2.16,0,0,0,.54,1.54,1.89,1.89,0,0,0,1.42.57,2.11,2.11,0,0,0,1.5-.58,2.08,2.08,0,0,0,.61-1.54v-4h1v7Z" fill="#f0ece7"/><path d="M62.21,104.75v1h-.13a2.25,2.25,0,0,0-1.85.91,3.33,3.33,0,0,0-.67,2.07v3.08H58.51v-7h1.05v1.72a2.69,2.69,0,0,1,2.58-1.83Z" fill="#f0ece7"/><path d="M67,104.75v1h-.13a2.24,2.24,0,0,0-1.85.91,3.33,3.33,0,0,0-.67,2.07v3.08h-1v-7h1v1.72a2.56,2.56,0,0,1,1.46-1.6,2.51,2.51,0,0,1,1.12-.23Z" fill="#f0ece7"/><path d="M71.11,111a2.12,2.12,0,0,0,2-1.17h1.15a3.37,3.37,0,0,1-1.16,1.54,3.3,3.3,0,0,1-2,.59,3.39,3.39,0,0,1-2.58-1.06,3.59,3.59,0,0,1-1-2.56,3.63,3.63,0,0,1,.93-2.56,3.61,3.61,0,0,1,5.09,0,3.63,3.63,0,0,1,.93,2.56v.42H68.63a2.56,2.56,0,0,0,.77,1.6A2.37,2.37,0,0,0,71.11,111ZM71,105.7a2.29,2.29,0,0,0-1.63.61,2.45,2.45,0,0,0-.75,1.49h4.76a2.52,2.52,0,0,0-.76-1.49A2.28,2.28,0,0,0,71,105.7Z" fill="#f0ece7"/><path d="M76.84,104.86V106a3.43,3.43,0,0,1,.92-.86,2.28,2.28,0,0,1,1.25-.35,3.31,3.31,0,0,1,1.2.2,2.28,2.28,0,0,1,.88.59,3,3,0,0,1,.87,2.25v4.07h-1v-4a2.1,2.1,0,0,0-.55-1.54A1.83,1.83,0,0,0,79,105.7a2.1,2.1,0,0,0-1.5.59,2.06,2.06,0,0,0-.61,1.54v4h-1v-7Z" fill="#f0ece7"/><path d="M84.3,111.86v-6.07H82.87v-.93H84.3v-2.5h1v2.5H87v.93H85.35v6.07Z" fill="#f0ece7"/><path d="M89.16,111.86h-1v-9.8h1Z" fill="#f0ece7"/><path d="M92.84,114.64H91.7L93,111.77l-2.86-6.91h1.16l2.26,5.74,2.29-5.74H97Z" fill="#f0ece7"/><path d="M105.28,106.28l-1.75,5.58h-1.2l-2.2-7h1.12l1.68,5.7,1.78-5.7h1.15l1.78,5.7,1.68-5.7h1.12l-2.2,7H107Z" fill="#f0ece7"/><path d="M114.45,104.75a3.32,3.32,0,0,1,2.55,1,4,4,0,0,1,0,5.12,3.59,3.59,0,0,1-5.09,0,4,4,0,0,1,0-5.12A3.31,3.31,0,0,1,114.45,104.75Zm0,6.27a2.23,2.23,0,0,0,1.8-.78,3.11,3.11,0,0,0,0-3.75,2.43,2.43,0,0,0-3.59,0,3.11,3.11,0,0,0,0,3.75A2.23,2.23,0,0,0,114.45,111Z" fill="#f0ece7"/><path d="M123,104.75v1h-.13a2.25,2.25,0,0,0-1.85.91,3.33,3.33,0,0,0-.67,2.07v3.08h-1v-7h1v1.72a2.69,2.69,0,0,1,2.58-1.83Z" fill="#f0ece7"/><path d="M127.22,107.62l3,4.24H129l-2.45-3.51-1.32,1.3v2.21h-1v-9.8h1v6.27l3.38-3.47H130Z" fill="#f0ece7"/><path d="M132.26,102.32v1.37h-1.13v-1.37Zm-1.09,2.54h1.05v7h-1.05Z" fill="#f0ece7"/><path d="M135.09,104.86V106a3.43,3.43,0,0,1,.92-.86,2.31,2.31,0,0,1,1.25-.35,3.27,3.27,0,0,1,1.2.2,2.28,2.28,0,0,1,.88.59,3,3,0,0,1,.87,2.25v4.07h-1.05v-4a2.14,2.14,0,0,0-.54-1.54,1.86,1.86,0,0,0-1.42-.58,2.09,2.09,0,0,0-1.49.59,2,2,0,0,0-.62,1.54v4H134v-7Z" fill="#f0ece7"/><path d="M147.42,106v-1.12h1.05v6.79a3,3,0,0,1-.86,2.31,3.31,3.31,0,0,1-2.32.79,4,4,0,0,1-2.27-.56,2.74,2.74,0,0,1-1.11-1.49h1.16a2,2,0,0,0,2,1.09,2.42,2.42,0,0,0,1.77-.55,2.32,2.32,0,0,0,.54-1.66v-1a2.83,2.83,0,0,1-2.5,1.24,3.21,3.21,0,0,1-2.47-1,3.91,3.91,0,0,1,0-5,3.29,3.29,0,0,1,2.54-1A2.76,2.76,0,0,1,147.42,106Zm-2.36,4.93a2.54,2.54,0,0,0,1-.2,2.51,2.51,0,0,0,.77-.55,2.75,2.75,0,0,0,.63-1.85,2.71,2.71,0,0,0-.63-1.85,2.52,2.52,0,0,0-3.61,0,2.67,2.67,0,0,0-.66,1.85,2.71,2.71,0,0,0,.66,1.85A2.33,2.33,0,0,0,145.06,110.91Z" fill="#f0ece7"/><path d="M156.31,104.75a3.32,3.32,0,0,1,2.55,1,4,4,0,0,1,0,5.12,3.6,3.6,0,0,1-5.1,0,4,4,0,0,1,0-5.12A3.35,3.35,0,0,1,156.31,104.75Zm0,6.27a2.2,2.2,0,0,0,1.79-.78,3.11,3.11,0,0,0,0-3.75,2.18,2.18,0,0,0-1.79-.79,2.2,2.2,0,0,0-1.79.79,3.11,3.11,0,0,0,0,3.75A2.23,2.23,0,0,0,156.31,111Z" fill="#f0ece7"/><path d="M162.22,104.86V106a3.43,3.43,0,0,1,.92-.86,2.31,2.31,0,0,1,1.25-.35,3.27,3.27,0,0,1,1.2.2,2.39,2.39,0,0,1,.89.59,3,3,0,0,1,.86,2.25v4.07h-1.05v-4a2.14,2.14,0,0,0-.54-1.54,1.86,1.86,0,0,0-1.42-.58,2.09,2.09,0,0,0-1.49.59,2.07,2.07,0,0,0-.62,1.54v4h-1.05v-7Z" fill="#f0ece7"/><path d="M176.19,106.74c-.09-.73-.68-1.09-1.75-1.09s-1.62.33-1.62,1a.69.69,0,0,0,.34.63,3,3,0,0,0,.86.36c.35.09.72.18,1.13.26a6.46,6.46,0,0,1,1.13.33,2.55,2.55,0,0,1,.86.6,1.48,1.48,0,0,1,.34,1,1.8,1.8,0,0,1-.77,1.56,3.57,3.57,0,0,1-2.09.54,3.35,3.35,0,0,1-2.22-.7,2.12,2.12,0,0,1-.81-1.61h1.09a1.46,1.46,0,0,0,1.09,1.3,2.57,2.57,0,0,0,.72.11,4.73,4.73,0,0,0,.67,0,2.67,2.67,0,0,0,.6-.16.92.92,0,0,0,.67-.91.73.73,0,0,0-.34-.66,3,3,0,0,0-.86-.38c-.35-.1-.73-.19-1.13-.27a5.51,5.51,0,0,1-1.13-.33,2.35,2.35,0,0,1-.86-.57,1.4,1.4,0,0,1-.34-1,1.74,1.74,0,0,1,.69-1.47,3.37,3.37,0,0,1,2-.53,3.08,3.08,0,0,1,2,.62,2,2,0,0,1,.72,1.37Z" fill="#f0ece7"/><path d="M181.86,104.75a3.32,3.32,0,0,1,2.55,1,4,4,0,0,1,0,5.12,3.6,3.6,0,0,1-5.1,0,4,4,0,0,1,0-5.12A3.35,3.35,0,0,1,181.86,104.75Zm0,6.27a2.21,2.21,0,0,0,1.79-.78,3.11,3.11,0,0,0,0-3.75,2.42,2.42,0,0,0-3.58,0,3.11,3.11,0,0,0,0,3.75A2.23,2.23,0,0,0,181.86,111Z" fill="#f0ece7"/><path d="M187.77,105.93a2.31,2.31,0,0,1,2.13-1.18,2.42,2.42,0,0,1,1.29.37,2.5,2.5,0,0,1,.93,1,2.7,2.7,0,0,1,1.49-1.26,2.4,2.4,0,0,1,.92-.16,2.48,2.48,0,0,1,1.81.79,3,3,0,0,1,.78,2.1v4.22h-1.05v-4.2a2,2,0,0,0-.49-1.42,1.59,1.59,0,0,0-1.24-.54,1.83,1.83,0,0,0-1.33.52,1.9,1.9,0,0,0-.56,1.46v4.18h-1v-4.2a2.09,2.09,0,0,0-.49-1.42,1.63,1.63,0,0,0-1.25-.54,1.85,1.85,0,0,0-1.33.52,1.94,1.94,0,0,0-.56,1.46v4.18h-1.05v-7h1.05Z" fill="#f0ece7"/><path d="M202,111a2.11,2.11,0,0,0,2-1.17h1.15a3.42,3.42,0,0,1-1.15,1.54,3.36,3.36,0,0,1-2,.59,3.42,3.42,0,0,1-2.58-1.06,3.58,3.58,0,0,1-1-2.56,3.67,3.67,0,0,1,.92-2.56,3.62,3.62,0,0,1,5.1,0,3.67,3.67,0,0,1,.92,2.56v.42h-5.86a2.51,2.51,0,0,0,.77,1.6A2.33,2.33,0,0,0,202,111Zm-.08-5.32a2.27,2.27,0,0,0-1.62.61,2.47,2.47,0,0,0-.76,1.49h4.76a2.47,2.47,0,0,0-.76-1.49A2.27,2.27,0,0,0,201.91,105.7Z" fill="#f0ece7"/><path d="M210.7,106a2.84,2.84,0,0,1,2.51-1.23,3.13,3.13,0,0,1,2.45,1,4,4,0,0,1,0,5.12,3.23,3.23,0,0,1-2.52,1.06,2.78,2.78,0,0,1-2.44-1.25v3.91h-1v-9.78h1Zm2.37-.28a2.18,2.18,0,0,0-1.79.79,3.11,3.11,0,0,0,0,3.75,2.2,2.2,0,0,0,1.79.78,2.35,2.35,0,0,0,1.82-.78,3,3,0,0,0,0-3.75A2.32,2.32,0,0,0,213.07,105.7Z" fill="#f0ece7"/><path d="M221.66,104.75v1h-.12a2.24,2.24,0,0,0-1.85.91,3.27,3.27,0,0,0-.67,2.07v3.08H218v-7H219v1.72a2.67,2.67,0,0,1,2.57-1.83Z" fill="#f0ece7"/><path d="M225.65,104.75a3.32,3.32,0,0,1,2.55,1,4,4,0,0,1,0,5.12,3.59,3.59,0,0,1-5.09,0,4,4,0,0,1,0-5.12A3.31,3.31,0,0,1,225.65,104.75Zm0,6.27a2.23,2.23,0,0,0,1.8-.78,3.11,3.11,0,0,0,0-3.75,2.43,2.43,0,0,0-3.59,0,3.11,3.11,0,0,0,0,3.75A2.23,2.23,0,0,0,225.65,111Z" fill="#f0ece7"/><path d="M231.6,102.32v1.37h-1.13v-1.37Zm-1.09,2.54h1.05v9.78h-1.05Z" fill="#f0ece7"/><path d="M236.5,111a2.11,2.11,0,0,0,2-1.17h1.15a3.42,3.42,0,0,1-1.15,1.54,3.36,3.36,0,0,1-2,.59,3.41,3.41,0,0,1-2.58-1.06,3.58,3.58,0,0,1-1-2.56,3.67,3.67,0,0,1,.92-2.56,3.62,3.62,0,0,1,5.1,0,3.67,3.67,0,0,1,.92,2.56v.42H234a2.55,2.55,0,0,0,.76,1.6A2.37,2.37,0,0,0,236.5,111Zm-.08-5.32a2.31,2.31,0,0,0-1.63.61,2.45,2.45,0,0,0-.75,1.49h4.76a2.47,2.47,0,0,0-.76-1.49A2.28,2.28,0,0,0,236.42,105.7Z" fill="#f0ece7"/><path d="M244.41,111a2,2,0,0,0,1.19-.37,2.22,2.22,0,0,0,.76-1h1.13a3.14,3.14,0,0,1-1.17,1.66,3.56,3.56,0,0,1-2.13.65,3.27,3.27,0,0,1-2.51-1.06,4,4,0,0,1,0-5.12,3.26,3.26,0,0,1,2.51-1,3.56,3.56,0,0,1,2.13.65,3.14,3.14,0,0,1,1.17,1.66h-1.13a2.16,2.16,0,0,0-.76-1,2,2,0,0,0-1.19-.38,2.76,2.76,0,0,0-1.14.21,2.42,2.42,0,0,0-.79.58,2.89,2.89,0,0,0,0,3.75A2.47,2.47,0,0,0,244.41,111Z" fill="#f0ece7"/><path d="M249.55,111.86v-6.07h-1.43v-.93h1.43v-2.5h1v2.5h1.61v.93H250.6v6.07Z" fill="#f0ece7"/><path d="M257.47,106.74c-.09-.73-.67-1.09-1.75-1.09s-1.62.33-1.62,1a.69.69,0,0,0,.34.63,3,3,0,0,0,.86.36c.35.09.73.18,1.13.26a6.22,6.22,0,0,1,1.13.33,2.55,2.55,0,0,1,.86.6,1.48,1.48,0,0,1,.34,1,1.77,1.77,0,0,1-.77,1.56,3.56,3.56,0,0,1-2.08.54,3.36,3.36,0,0,1-2.23-.7,2.18,2.18,0,0,1-.81-1.61H254a1.47,1.47,0,0,0,1.09,1.3,2.62,2.62,0,0,0,.72.11,4.73,4.73,0,0,0,.67,0,2.67,2.67,0,0,0,.6-.16.92.92,0,0,0,.67-.91.73.73,0,0,0-.34-.66,3,3,0,0,0-.86-.38c-.35-.1-.72-.19-1.13-.27a5.7,5.7,0,0,1-1.13-.33,2.35,2.35,0,0,1-.86-.57,1.45,1.45,0,0,1-.34-1,1.74,1.74,0,0,1,.69-1.47,3.39,3.39,0,0,1,2-.53,3.08,3.08,0,0,1,2,.62,2,2,0,0,1,.72,1.37Z" fill="#f0ece7"/><path d="M64.52,127.54A2.85,2.85,0,0,1,62,128.78a3.16,3.16,0,0,1-2.46-1.06,4,4,0,0,1,0-5.12,3.25,3.25,0,0,1,2.53-1,2.78,2.78,0,0,1,2.44,1.25v-1.14h1v7h-1Zm-2.37.28a2.21,2.21,0,0,0,1.79-.78,3.11,3.11,0,0,0,0-3.75,2.19,2.19,0,0,0-1.79-.79,2.31,2.31,0,0,0-1.82.79,3,3,0,0,0,0,3.75A2.33,2.33,0,0,0,62.15,127.82Z" fill="#f0ece7"/><path d="M68.44,121.66v1.09a3.56,3.56,0,0,1,.92-.85,2.28,2.28,0,0,1,1.25-.35,3.35,3.35,0,0,1,1.2.2,2.37,2.37,0,0,1,.88.58,3,3,0,0,1,.87,2.26v4.07h-1v-4a2.1,2.1,0,0,0-.55-1.54,1.83,1.83,0,0,0-1.41-.58,2.1,2.1,0,0,0-1.5.59,2.06,2.06,0,0,0-.61,1.54v4h-1v-7Z" fill="#f0ece7"/><path d="M80.77,127.54a2.84,2.84,0,0,1-2.51,1.24,3.19,3.19,0,0,1-2.46-1.06,4,4,0,0,1,0-5.12,3.26,3.26,0,0,1,2.53-1,2.78,2.78,0,0,1,2.44,1.25v-3.94h1v9.8h-1Zm-2.37.28a2.23,2.23,0,0,0,1.8-.78,3.11,3.11,0,0,0,0-3.75,2.21,2.21,0,0,0-1.8-.79,2.32,2.32,0,0,0-1.82.79,3,3,0,0,0,0,3.75A2.35,2.35,0,0,0,78.4,127.82Z" fill="#f0ece7"/><path d="M89.74,127.82a2.11,2.11,0,0,0,2-1.17h1.15a3.47,3.47,0,0,1-1.15,1.54,3.36,3.36,0,0,1-2,.59,3.42,3.42,0,0,1-2.58-1.06,3.58,3.58,0,0,1-1-2.56,3.67,3.67,0,0,1,.92-2.56,3.62,3.62,0,0,1,5.1,0,3.67,3.67,0,0,1,.92,2.56v.42H87.27a2.51,2.51,0,0,0,.77,1.6A2.33,2.33,0,0,0,89.74,127.82Zm-.08-5.32a2.27,2.27,0,0,0-1.62.61,2.41,2.41,0,0,0-.76,1.49H92a2.41,2.41,0,0,0-.76-1.49A2.27,2.27,0,0,0,89.66,122.5Z" fill="#f0ece7"/><path d="M98.54,123.54c-.1-.73-.68-1.09-1.76-1.09s-1.62.33-1.62,1a.69.69,0,0,0,.35.63,2.75,2.75,0,0,0,.86.36c.34.09.72.18,1.12.26a6,6,0,0,1,1.13.33,2.55,2.55,0,0,1,.86.6,1.47,1.47,0,0,1,.34,1,1.78,1.78,0,0,1-.77,1.57,3.54,3.54,0,0,1-2.08.54,3.38,3.38,0,0,1-2.23-.7,2.19,2.19,0,0,1-.81-1.62H95a1.48,1.48,0,0,0,1.09,1.31,2.69,2.69,0,0,0,.73.11,4.68,4.68,0,0,0,.66,0,2.41,2.41,0,0,0,.6-.16.92.92,0,0,0,.67-.91.73.73,0,0,0-.34-.66,2.86,2.86,0,0,0-.86-.38c-.35-.1-.72-.19-1.13-.27a5.42,5.42,0,0,1-1.12-.33,2.2,2.2,0,0,1-.86-.57,1.41,1.41,0,0,1-.35-1,1.74,1.74,0,0,1,.69-1.47,3.4,3.4,0,0,1,2.06-.53,3.11,3.11,0,0,1,2,.62,2,2,0,0,1,.71,1.37Z" fill="#f0ece7"/><path d="M101.92,128.66v-6.07H100.5v-.93h1.42v-2.5h1v2.5h1.61v.93H103v6.07Z" fill="#f0ece7"/><path d="M111.05,127.54a2.83,2.83,0,0,1-2.5,1.24,3.2,3.2,0,0,1-2.47-1.06,4,4,0,0,1,0-5.12,3.27,3.27,0,0,1,2.54-1,2.78,2.78,0,0,1,2.43,1.25v-1.14h1v7h-1Zm-2.36.28a2.23,2.23,0,0,0,1.79-.78,3.11,3.11,0,0,0,0-3.75,2.2,2.2,0,0,0-1.79-.79,2.29,2.29,0,0,0-1.82.79,3,3,0,0,0,0,3.75A2.32,2.32,0,0,0,108.69,127.82Z" fill="#f0ece7"/><path d="M115,122.8a2.86,2.86,0,0,1,2.51-1.25,3.13,3.13,0,0,1,2.45,1,4,4,0,0,1,0,5.12,3.24,3.24,0,0,1-2.53,1.06,2.77,2.77,0,0,1-2.43-1.24v1.12h-1v-9.8h1Zm2.37,5a2.35,2.35,0,0,0,1.82-.78,3,3,0,0,0,0-3.75,2.32,2.32,0,0,0-1.82-.79,2.18,2.18,0,0,0-1.79.79,3.11,3.11,0,0,0,0,3.75A2.2,2.2,0,0,0,117.34,127.82Z" fill="#f0ece7"/><path d="M123.29,128.66h-1.05v-9.8h1.05Z" fill="#f0ece7"/><path d="M126.2,119.12v1.37h-1.13v-1.37Zm-1.09,2.54h1v7h-1Z" fill="#f0ece7"/><path d="M132.09,123.54c-.09-.73-.68-1.09-1.75-1.09s-1.62.33-1.62,1a.69.69,0,0,0,.34.63,3,3,0,0,0,.86.36c.35.09.72.18,1.13.26a6.22,6.22,0,0,1,1.13.33,2.55,2.55,0,0,1,.86.6,1.47,1.47,0,0,1,.34,1,1.8,1.8,0,0,1-.77,1.57,3.56,3.56,0,0,1-2.08.54,3.36,3.36,0,0,1-2.23-.7,2.12,2.12,0,0,1-.81-1.62h1.09a1.46,1.46,0,0,0,1.09,1.31,2.57,2.57,0,0,0,.72.11,4.73,4.73,0,0,0,.67,0,2.67,2.67,0,0,0,.6-.16.92.92,0,0,0,.67-.91.73.73,0,0,0-.34-.66,3,3,0,0,0-.86-.38c-.35-.1-.72-.19-1.13-.27a5.51,5.51,0,0,1-1.13-.33,2.35,2.35,0,0,1-.86-.57,1.4,1.4,0,0,1-.34-1,1.74,1.74,0,0,1,.69-1.47,3.37,3.37,0,0,1,2-.53,3.08,3.08,0,0,1,2,.62,2,2,0,0,1,.72,1.37Z" fill="#f0ece7"/><path d="M135.78,118.86v3.89a3.41,3.41,0,0,1,.92-.85,2.28,2.28,0,0,1,1.25-.35,3.35,3.35,0,0,1,1.2.2,2.46,2.46,0,0,1,.88.58,3,3,0,0,1,.87,2.26v4.07h-1.05v-4a2.1,2.1,0,0,0-.55-1.54,1.83,1.83,0,0,0-1.41-.58,2.1,2.1,0,0,0-1.5.59,2.06,2.06,0,0,0-.61,1.54v4h-1.06v-9.8Z" fill="#f0ece7"/><path d="M143.74,119.12v1.37h-1.13v-1.37Zm-1.09,2.54h1v7h-1Z" fill="#f0ece7"/><path d="M146.57,121.66v1.09a3.56,3.56,0,0,1,.92-.85,2.31,2.31,0,0,1,1.25-.35,3.27,3.27,0,0,1,1.2.2,2.37,2.37,0,0,1,.88.58,3,3,0,0,1,.87,2.26v4.07h-1.05v-4a2.14,2.14,0,0,0-.54-1.54,1.86,1.86,0,0,0-1.42-.58,2.12,2.12,0,0,0-1.5.59,2.06,2.06,0,0,0-.61,1.54v4h-1v-7Z" fill="#f0ece7"/><path d="M158.9,122.78v-1.12h1v6.79a3,3,0,0,1-.86,2.31,3.33,3.33,0,0,1-2.32.79,4,4,0,0,1-2.27-.56,2.74,2.74,0,0,1-1.11-1.49h1.16a2,2,0,0,0,2,1.09,2.42,2.42,0,0,0,1.77-.55,2.32,2.32,0,0,0,.54-1.66v-1a2.83,2.83,0,0,1-2.5,1.24,3.21,3.21,0,0,1-2.47-1,3.91,3.91,0,0,1,0-5,3.29,3.29,0,0,1,2.54-1A2.76,2.76,0,0,1,158.9,122.78Zm-2.36,4.93a2.54,2.54,0,0,0,1-.2,2.51,2.51,0,0,0,.77-.55,2.75,2.75,0,0,0,.63-1.85,2.71,2.71,0,0,0-.63-1.85,2.52,2.52,0,0,0-3.61,0,2.67,2.67,0,0,0-.66,1.85,2.71,2.71,0,0,0,.66,1.85A2.33,2.33,0,0,0,156.54,127.71Z" fill="#f0ece7"/><path d="M165.8,121.66v1.09a3.6,3.6,0,0,1,.93-.85,2.27,2.27,0,0,1,1.24-.35,3.37,3.37,0,0,1,1.21.2,2.46,2.46,0,0,1,.88.58,3,3,0,0,1,.87,2.26v4.07h-1.05v-4a2.1,2.1,0,0,0-.55-1.54,1.83,1.83,0,0,0-1.41-.58,2.1,2.1,0,0,0-1.5.59,2.07,2.07,0,0,0-.62,1.54v4h-1.05v-7Z" fill="#f0ece7"/><path d="M175.8,127.82a2.12,2.12,0,0,0,2-1.17H179a3.49,3.49,0,0,1-1.16,1.54,3.32,3.32,0,0,1-2,.59,3.39,3.39,0,0,1-2.58-1.06,3.59,3.59,0,0,1-1-2.56,3.63,3.63,0,0,1,.93-2.56,3.61,3.61,0,0,1,5.09,0,3.63,3.63,0,0,1,.93,2.56v.42h-5.87a2.56,2.56,0,0,0,.77,1.6A2.37,2.37,0,0,0,175.8,127.82Zm-.08-5.32a2.29,2.29,0,0,0-1.63.61,2.45,2.45,0,0,0-.75,1.49h4.76a2.52,2.52,0,0,0-.76-1.49A2.28,2.28,0,0,0,175.72,122.5Z" fill="#f0ece7"/><path d="M184.84,123.08l-1.75,5.58h-1.2l-2.2-7h1.12l1.68,5.7,1.78-5.7h1.15l1.78,5.7,1.68-5.7H190l-2.2,7h-1.21Z" fill="#f0ece7"/><path d="M197.71,121.55v1h-.13a2.22,2.22,0,0,0-1.84.91,3.28,3.28,0,0,0-.68,2.07v3.08H194v-7h1.05v1.72a2.69,2.69,0,0,1,2.58-1.83Z" fill="#f0ece7"/><path d="M201.7,121.55a3.35,3.35,0,0,1,2.55,1,4,4,0,0,1,0,5.12,3.6,3.6,0,0,1-5.1,0,4,4,0,0,1,0-5.12A3.32,3.32,0,0,1,201.7,121.55Zm0,6.27a2.21,2.21,0,0,0,1.79-.78,3.11,3.11,0,0,0,0-3.75,2.42,2.42,0,0,0-3.58,0,3.11,3.11,0,0,0,0,3.75A2.21,2.21,0,0,0,201.7,127.82Z" fill="#f0ece7"/><path d="M211.61,128.66v-1.09a3.39,3.39,0,0,1-.92.85,2.23,2.23,0,0,1-1.25.36,3.27,3.27,0,0,1-1.2-.2,2.4,2.4,0,0,1-.88-.59,3,3,0,0,1-.87-2.25v-4.08h1v4a2.16,2.16,0,0,0,.54,1.54,1.89,1.89,0,0,0,1.42.57,2.11,2.11,0,0,0,1.5-.58,2.08,2.08,0,0,0,.61-1.54v-4h1v7Z" fill="#f0ece7"/><path d="M215.24,128.66v-6.07h-1.43v-.93h1.43v-2.5h1v2.5h1.61v.93h-1.61v6.07Z" fill="#f0ece7"/><path d="M222,127.82a2.12,2.12,0,0,0,2-1.17h1.15a3.49,3.49,0,0,1-1.16,1.54,3.72,3.72,0,0,1-4.61-.47,3.55,3.55,0,0,1-1-2.56,3.63,3.63,0,0,1,.93-2.56,3.61,3.61,0,0,1,5.09,0,3.63,3.63,0,0,1,.93,2.56v.42h-5.87a2.51,2.51,0,0,0,.77,1.6A2.37,2.37,0,0,0,222,127.82Zm-.09-5.32a2.28,2.28,0,0,0-1.62.61,2.52,2.52,0,0,0-.76,1.49h4.76a2.45,2.45,0,0,0-.75-1.49A2.29,2.29,0,0,0,221.94,122.5Z" fill="#f0ece7"/><path d="M230.82,123.54c-.09-.73-.68-1.09-1.76-1.09s-1.61.33-1.61,1a.69.69,0,0,0,.34.63,2.85,2.85,0,0,0,.86.36c.34.09.72.18,1.13.26a6.11,6.11,0,0,1,1.12.33,2.37,2.37,0,0,1,.86.6,1.48,1.48,0,0,1,.35,1,1.8,1.8,0,0,1-.77,1.57,3.6,3.6,0,0,1-2.09.54,3.35,3.35,0,0,1-2.22-.7,2.16,2.16,0,0,1-.82-1.62h1.1a1.45,1.45,0,0,0,1.09,1.31,2.57,2.57,0,0,0,.72.11,4.5,4.5,0,0,0,.66,0,2.41,2.41,0,0,0,.6-.16.93.93,0,0,0,.68-.91.74.74,0,0,0-.35-.66,2.75,2.75,0,0,0-.86-.38c-.34-.1-.72-.19-1.12-.27a5.51,5.51,0,0,1-1.13-.33,2.27,2.27,0,0,1-.86-.57,1.4,1.4,0,0,1-.34-1,1.74,1.74,0,0,1,.69-1.47,3.35,3.35,0,0,1,2-.53,3.1,3.1,0,0,1,2,.62,2,2,0,0,1,.71,1.37Z" fill="#f0ece7"/><path d="M234.64,127.24v1.42h-1.36v-1.42Z" fill="#f0ece7"/><path d="M237.48,127.24v1.42h-1.36v-1.42Z" fill="#f0ece7"/><path d="M240.33,127.24v1.42H239v-1.42Z" fill="#f0ece7"/><path d="M82.82,153v9.26h-1v-7.67L78.34,159l-3.48-4.41v7.67h-1V153H75l3.32,4.39L81.6,153Z" fill="#f0ece7"/><path d="M87.78,155.15a3.35,3.35,0,0,1,2.55,1,4,4,0,0,1,0,5.13,3.62,3.62,0,0,1-5.1,0,4,4,0,0,1,0-5.13A3.32,3.32,0,0,1,87.78,155.15Zm0,6.27a2.23,2.23,0,0,0,1.79-.78,3.11,3.11,0,0,0,0-3.75,2.23,2.23,0,0,0-1.79-.79,2.21,2.21,0,0,0-1.79.79,3.11,3.11,0,0,0,0,3.75A2.2,2.2,0,0,0,87.78,161.42Z" fill="#f0ece7"/><path d="M96.33,155.15v1h-.12a2.22,2.22,0,0,0-1.85.91,3.27,3.27,0,0,0-.67,2.07v3.08h-1v-7h1V157a2.51,2.51,0,0,1,1.45-1.61,2.54,2.54,0,0,1,1.12-.23Z" fill="#f0ece7"/><path d="M100.41,161.42a2.12,2.12,0,0,0,2-1.17h1.14a3.54,3.54,0,0,1-5.76,1.08,3.59,3.59,0,0,1-1-2.57,3.67,3.67,0,0,1,.92-2.56,3.62,3.62,0,0,1,5.1,0,3.63,3.63,0,0,1,.92,2.56v.42H97.93a2.51,2.51,0,0,0,.77,1.6A2.36,2.36,0,0,0,100.41,161.42Zm-.09-5.32a2.28,2.28,0,0,0-1.62.61,2.52,2.52,0,0,0-.76,1.49h4.76a2.45,2.45,0,0,0-.75-1.49A2.29,2.29,0,0,0,100.32,156.1Z" fill="#f0ece7"/><path d="M112.43,156.68l-1.75,5.58h-1.2l-2.2-7h1.12l1.68,5.7,1.78-5.7H113l1.77,5.7,1.68-5.7h1.12l-2.19,7h-1.21Z" fill="#f0ece7"/><path d="M121.6,155.15a3.32,3.32,0,0,1,2.55,1,4,4,0,0,1,0,5.13,3.62,3.62,0,0,1-5.1,0,4,4,0,0,1,0-5.13A3.35,3.35,0,0,1,121.6,155.15Zm0,6.27a2.2,2.2,0,0,0,1.79-.78,3.11,3.11,0,0,0,0-3.75,2.21,2.21,0,0,0-1.79-.79,2.23,2.23,0,0,0-1.79.79,3.11,3.11,0,0,0,0,3.75A2.23,2.23,0,0,0,121.6,161.42Z" fill="#f0ece7"/><path d="M130.16,155.15v1H130a2.24,2.24,0,0,0-1.85.91,3.27,3.27,0,0,0-.67,2.07v3.08h-1.05v-7h1.05V157a2.68,2.68,0,0,1,2.58-1.84Z" fill="#f0ece7"/><path d="M134.37,158l3,4.24h-1.28l-2.45-3.51-1.32,1.3v2.21h-1.05v-9.8h1.05v6.28l3.37-3.48h1.47Z" fill="#f0ece7"/><path d="M138.37,161.14h1.38l-1.24,3h-.95Z" fill="#f0ece7"/><path d="M147.61,161.42a2,2,0,0,0,1.19-.37,2.22,2.22,0,0,0,.76-1h1.13a3.14,3.14,0,0,1-1.17,1.66,3.56,3.56,0,0,1-2.13.65,3.26,3.26,0,0,1-2.51-1,4,4,0,0,1,0-5.13,3.26,3.26,0,0,1,2.51-1,3.56,3.56,0,0,1,2.13.65,3.14,3.14,0,0,1,1.17,1.66h-1.13a2.16,2.16,0,0,0-.76-1,2,2,0,0,0-1.19-.38,2.76,2.76,0,0,0-1.14.21,2.42,2.42,0,0,0-.79.58,2.89,2.89,0,0,0,0,3.75A2.47,2.47,0,0,0,147.61,161.42Z" fill="#f0ece7"/><path d="M155,155.15a3.32,3.32,0,0,1,2.55,1,4,4,0,0,1,0,5.13,3.62,3.62,0,0,1-5.1,0,4,4,0,0,1,0-5.13A3.35,3.35,0,0,1,155,155.15Zm0,6.27a2.2,2.2,0,0,0,1.79-.78,3.07,3.07,0,0,0,0-3.75,2.21,2.21,0,0,0-1.79-.79,2.23,2.23,0,0,0-1.79.79,3.11,3.11,0,0,0,0,3.75A2.23,2.23,0,0,0,155,161.42Z" fill="#f0ece7"/><path d="M160.94,156.33a2.31,2.31,0,0,1,2.13-1.18,2.42,2.42,0,0,1,1.29.37,2.5,2.5,0,0,1,.93,1,2.7,2.7,0,0,1,1.49-1.26,2.4,2.4,0,0,1,.92-.16,2.56,2.56,0,0,1,1,.2,2.52,2.52,0,0,1,.83.59,3,3,0,0,1,.78,2.1v4.22h-1v-4.2a2.06,2.06,0,0,0-.49-1.42,1.59,1.59,0,0,0-1.24-.54,1.83,1.83,0,0,0-1.33.52,1.9,1.9,0,0,0-.56,1.46v4.18h-1.05v-4.2a2.11,2.11,0,0,0-.49-1.42,1.63,1.63,0,0,0-1.25-.54,1.87,1.87,0,0,0-1.33.52,1.94,1.94,0,0,0-.56,1.46v4.18h-1.05v-7h1.05Z" fill="#f0ece7"/><path d="M173.13,152.72v1.37H172v-1.37ZM172,155.26h1.05v7H172Z" fill="#f0ece7"/><path d="M176,155.26v1.1a3.48,3.48,0,0,1,.93-.86,2.27,2.27,0,0,1,1.24-.35,3.37,3.37,0,0,1,1.21.2,2.36,2.36,0,0,1,.88.59,3,3,0,0,1,.87,2.25v4.07H180v-4a2.15,2.15,0,0,0-.55-1.54,1.84,1.84,0,0,0-1.41-.58,2.1,2.1,0,0,0-1.5.59,2.07,2.07,0,0,0-.62,1.54v4h-1.05v-7Z" fill="#f0ece7"/><path d="M188.3,156.38v-1.12h1v6.79a3,3,0,0,1-.87,2.31,3.3,3.3,0,0,1-2.31.79,4,4,0,0,1-2.28-.56,2.84,2.84,0,0,1-1.11-1.49h1.16a2,2,0,0,0,2.05,1.1,2.38,2.38,0,0,0,1.76-.56,2.32,2.32,0,0,0,.55-1.66v-1a2.85,2.85,0,0,1-2.51,1.24,3.17,3.17,0,0,1-2.46-1,3.88,3.88,0,0,1,0-5,3.28,3.28,0,0,1,2.54-1A2.76,2.76,0,0,1,188.3,156.38Zm-2.37,4.93a2.54,2.54,0,0,0,1-.2,2.4,2.4,0,0,0,.77-.55,2.75,2.75,0,0,0,.63-1.85,2.71,2.71,0,0,0-.63-1.85,2.32,2.32,0,0,0-1.79-.76,2.35,2.35,0,0,0-1.82.76,2.92,2.92,0,0,0,0,3.7A2.35,2.35,0,0,0,185.93,161.31Z" fill="#f0ece7"/><path d="M198.26,157.14c-.09-.73-.68-1.09-1.75-1.09s-1.62.33-1.62,1a.69.69,0,0,0,.34.63,3,3,0,0,0,.86.36c.35.09.72.18,1.13.26a6.22,6.22,0,0,1,1.13.33,2.55,2.55,0,0,1,.86.6,1.48,1.48,0,0,1,.34,1,1.8,1.8,0,0,1-.77,1.56,3.56,3.56,0,0,1-2.08.54,3.36,3.36,0,0,1-2.23-.7,2.12,2.12,0,0,1-.81-1.61h1.09a1.46,1.46,0,0,0,1.09,1.3,2.57,2.57,0,0,0,.72.11,4.73,4.73,0,0,0,.67,0,2.67,2.67,0,0,0,.6-.16.92.92,0,0,0,.67-.91.73.73,0,0,0-.34-.66,3,3,0,0,0-.86-.38c-.35-.1-.72-.19-1.13-.27a5.51,5.51,0,0,1-1.13-.32,2.51,2.51,0,0,1-.86-.58,1.4,1.4,0,0,1-.34-1,1.74,1.74,0,0,1,.69-1.47,3.37,3.37,0,0,1,2.05-.53,3.08,3.08,0,0,1,2,.62,2,2,0,0,1,.72,1.37Z" fill="#f0ece7"/><path d="M203.93,155.15a3.32,3.32,0,0,1,2.55,1,4,4,0,0,1,0,5.13,3.62,3.62,0,0,1-5.1,0,4,4,0,0,1,0-5.13A3.35,3.35,0,0,1,203.93,155.15Zm0,6.27a2.23,2.23,0,0,0,1.8-.78,3.11,3.11,0,0,0,0-3.75,2.43,2.43,0,0,0-3.59,0,3.11,3.11,0,0,0,0,3.75A2.23,2.23,0,0,0,203.93,161.42Z" fill="#f0ece7"/><path d="M211.83,155.15a3.33,3.33,0,0,1,2.55,1,4,4,0,0,1,0,5.13,3.62,3.62,0,0,1-5.1,0,4,4,0,0,1,0-5.13A3.32,3.32,0,0,1,211.83,155.15Zm0,6.27a2.21,2.21,0,0,0,1.79-.78,3.11,3.11,0,0,0,0-3.75,2.42,2.42,0,0,0-3.58,0,3.11,3.11,0,0,0,0,3.75A2.21,2.21,0,0,0,211.83,161.42Z" fill="#f0ece7"/><path d="M217.74,155.26v1.1a3.6,3.6,0,0,1,.92-.86,2.31,2.31,0,0,1,1.25-.35,3.31,3.31,0,0,1,1.2.2,2.28,2.28,0,0,1,.88.59,3,3,0,0,1,.87,2.25v4.07h-1.05v-4a2.14,2.14,0,0,0-.54-1.54,1.86,1.86,0,0,0-1.42-.58,2.1,2.1,0,0,0-1.5.59,2.06,2.06,0,0,0-.61,1.54v4h-1.05v-7Z" fill="#f0ece7"/><path d="M225.8,160.84v1.42h-1.36v-1.42Z" fill="#f0ece7"/></g></g></svg>