<svg xmlns="http://www.w3.org/2000/svg" viewBox="0 0 300 200"><g id="Layer_2" data-name="Layer 2"><g id="Layer_1-2" data-name="Layer 1"><rect x="4" y="4" width="292" height="192" fill="#ca8854"/><path d="M292,8V192H8V8H292m8-8H0V200H300V0Z" fill="#203832"/><path d="M187.35,75.41l-3-3a5.14,5.14,0,0,0-.66-6.45L157.43,39.7A5.14,5.14,0,0,0,151,39l-6.44-6.44a28.66,28.66,0,0,0-40.5,0c-2.18,2.18-4.45,4.31-6.85,6.58-5,4.69-10.4,9.79-14.79,15.31a173.41,173.41,0,0,0-18.5-.14c-3.3.1-6.41.19-9.49.19A28.68,28.68,0,0,0,25.77,83.18v9.11a5.14,5.14,0,0,0-4.09,5V134.5a5.16,5.16,0,0,0,4.09,5v4.19c0,16.72,22.28,30.28,36.82,30.28,8.54,0,17-5.37,25.06-15.95s16.22-27.72,21.24-44.25c14.91,7.76,31.9,13.76,44.84,15.49,13.2,1.77,23-.4,29-6.44C193,112.57,199.17,87.23,187.35,75.41Zm-36-34.55a3.49,3.49,0,0,1,5,0l26.29,26.29a3.49,3.49,0,0,1,0,4.95L171.89,82.77a3.49,3.49,0,0,1-4.95,0L140.65,56.48a3.51,3.51,0,0,1,0-4.95ZM113,75.08a24.59,24.59,0,0,0-11.21-15.3l.92-.93c2.21-2.22,4.69-4.56,6.81-6.57,2.28-2.13,4.85-4.56,7.25-7a10.64,10.64,0,0,1,15,0L138.43,52a5.15,5.15,0,0,0,1.06,5.69l26.29,26.29A5.15,5.15,0,0,0,171.47,85l3.15,3.15c2.73,2.72,1.09,16.27-4.62,22-2.6,2.59-5.52,2.44-13.88,1.32-14-1.87-30.32-8.56-43-15.76C114.37,87.66,114.47,80.46,113,75.08Zm-22.82-.94a9.3,9.3,0,0,0,1.16,6.3,24.38,24.38,0,0,0,4.77,5.39,84.25,84.25,0,0,1-2.7,16.72c-6.74-4.84-12.07-9.92-14.86-14.81C71.9,76.1,75.92,65.55,83.17,56.17h0c.44-.51.91-1,1.39-1.53H84.4c2.14-2.61,4.5-5.13,6.92-7.55s4.7-4.56,7-6.71S103,36,105.19,33.76a27,27,0,0,1,38.19,0l6.37,6.36L139.49,50.37l-.14.18L133,44.17a12.3,12.3,0,0,0-17.36,0c-2.37,2.37-4.94,4.79-7.21,6.92s-4.62,4.37-6.85,6.6c-6,6-10.18,11.12-11.23,15.79m1.44,1.44a7.88,7.88,0,0,1,3.87,4.9,16.28,16.28,0,0,1,.49,3.85,19.53,19.53,0,0,1-3.36-4A7.72,7.72,0,0,1,91.76,74.92Zm-48,17.62V83.18A10.65,10.65,0,0,1,54.41,72.54c3.38,0,6.92-.11,10-.2,2.87-.09,6.21-.17,9.3-.18a24.91,24.91,0,0,0,3.38,16.4c3,5.16,8.65,10.53,15.85,15.63-3.8,14.35-10.77,31.33-19.64,42.94-5.12,6.7-7.09,8.87-10.75,8.87-8.08,0-18.82-8.42-18.82-12.28v-4.45A5.13,5.13,0,0,0,47,134.5V97.32A5.15,5.15,0,0,0,43.77,92.54ZM27.41,83.18a27,27,0,0,1,27-27c3.1,0,6.23-.1,9.55-.2,3.13-.09,6.39-.19,9.68-.19,2.52,0,5,.09,7.55.26A37.83,37.83,0,0,0,74,70.53h-.13c-3.16,0-6.58.09-9.51.17-3.11.1-6.63.21-10,.21A12.29,12.29,0,0,0,42.13,83.18v9l-.23,0H27.41ZM23.32,134.5V97.32a3.5,3.5,0,0,1,3.5-3.5H41.9a3.51,3.51,0,0,1,3.51,3.5V134.5A3.51,3.51,0,0,1,41.9,138H26.82A3.5,3.5,0,0,1,23.32,134.5Zm63,22.56c-7.75,10.15-15.74,15.3-23.75,15.3-13.89,0-35.18-12.83-35.18-28.64v-4.08H41.9a1.6,1.6,0,0,0,.23,0v4.11c0,5,11.83,13.92,20.46,13.92,4.59,0,7-2.92,12-9.52,15.7-20.56,25.54-57.87,22.57-68.73a9.55,9.55,0,0,0-5.12-6.18c1-3.59,4.08-7.57,8.48-12.18a23.07,23.07,0,0,1,10.85,14.48C116.6,94.51,101.71,136.93,86.34,157.06Zm95.23-35.36c-5.66,5.66-15,7.67-27.62,6-12.89-1.72-29.83-7.7-44.6-15.42a133.28,133.28,0,0,0,3.51-14.9c12.81,7.22,29.06,13.85,43,15.72,8.23,1.11,12,1.46,15.25-1.79,6.1-6.1,8.19-20.74,4.63-24.3l-2.91-2.91c.06,0,.13-.09.18-.14L183.3,73.68l2.89,2.89C197.37,87.75,191.39,111.87,181.57,121.7Z" fill="#203832"/><path d="M121.86,160.15a3.93,3.93,0,0,0,2.24-.65,3.79,3.79,0,0,0,1.43-1.75H127a5.35,5.35,0,0,1-2,2.67,5.69,5.69,0,0,1-3.43,1,5.44,5.44,0,0,1-4.23-1.78,6.86,6.86,0,0,1,0-8.64,5.44,5.44,0,0,1,4.23-1.78,5.76,5.76,0,0,1,3.43,1,5.35,5.35,0,0,1,2,2.67h-1.43a3.84,3.84,0,0,0-1.43-1.75,3.93,3.93,0,0,0-2.24-.65,5.41,5.41,0,0,0-2.12.37,4,4,0,0,0-1.42,1,5.53,5.53,0,0,0,0,6.8A4.44,4.44,0,0,0,121.86,160.15Z" fill="#203832"/><path d="M136,149.26a5.8,5.8,0,0,1,4.38,1.78,6.42,6.42,0,0,1,0,8.64,6.27,6.27,0,0,1-8.75,0,6.42,6.42,0,0,1,0-8.64A5.79,5.79,0,0,1,136,149.26Zm0,10.89a4.49,4.49,0,0,0,3.44-1.39,5.22,5.22,0,0,0,0-6.8,4.94,4.94,0,0,0-6.87,0,5.22,5.22,0,0,0,0,6.8A4.48,4.48,0,0,0,136,160.15Z" fill="#203832"/><path d="M157.57,149.4v11.92h-1.35v-9.86l-4.41,5.66-4.48-5.66v9.86H146V149.4h1.57l4.26,5.66,4.2-5.66Z" fill="#203832"/><path d="M163.64,161.32h-1.35V149.4h1.35Z" fill="#203832"/><path d="M178.63,149.4v11.92h-1.56l-7.36-10.06v10.06h-1.35V149.4h1.56l7.36,10v-10Z" fill="#203832"/><path d="M186,149.74a5.46,5.46,0,0,1,2.23-.48,7,7,0,0,1,2,.25,5.94,5.94,0,0,1,1.53.69,5.38,5.38,0,0,1,2.09,2.44H192.4a4,4,0,0,0-1.5-1.52,4.39,4.39,0,0,0-2.19-.55,5.37,5.37,0,0,0-2.08.37,4.17,4.17,0,0,0-1.46,1,5.35,5.35,0,0,0,0,6.8,4.72,4.72,0,0,0,6.3.35,3.64,3.64,0,0,0,1.3-2.9h-4.36V155H194v6.34h-1.24v-2.11a4.91,4.91,0,0,1-2.85,2.07,6.91,6.91,0,0,1-1.75.18A5.44,5.44,0,0,1,186,161a5.56,5.56,0,0,1-1.84-1.31,6.17,6.17,0,0,1-1.55-4.32A6.1,6.1,0,0,1,184.2,151,5.26,5.26,0,0,1,186,149.74Z" fill="#203832"/><path d="M205.17,151.23a1.5,1.5,0,0,0-.46.66,2.37,2.37,0,0,0-.12.76,1.05,1.05,0,0,0,.35.75,2.79,2.79,0,0,0,.93.58,10.2,10.2,0,0,0,1.31.41l1.51.37c.51.12,1,.27,1.5.43a5.47,5.47,0,0,1,1.31.62,2.51,2.51,0,0,1,1.28,2.22,2.94,2.94,0,0,1-1.25,2.55,5.92,5.92,0,0,1-3.47.88,6,6,0,0,1-3.81-1,3.64,3.64,0,0,1-1.33-2.67h1.4a2.21,2.21,0,0,0,1.19,1.88,5.15,5.15,0,0,0,2.57.56c2.23,0,3.35-.71,3.35-2.11a1.29,1.29,0,0,0-.6-1.13,5.42,5.42,0,0,0-1.51-.69c-.61-.18-1.27-.35-2-.5a12.48,12.48,0,0,1-2-.61,4.46,4.46,0,0,1-1.51-1,2.2,2.2,0,0,1-.6-1.63,2.93,2.93,0,0,1,1.11-2.37,5.25,5.25,0,0,1,3.37-.92,5.34,5.34,0,0,1,3.51,1,3.12,3.12,0,0,1,1.2,2.36h-1.38a2.3,2.3,0,0,0-1.91-2,5.51,5.51,0,0,0-1.52-.18,4.79,4.79,0,0,0-1.53.21A2.53,2.53,0,0,0,205.17,151.23Z" fill="#203832"/><path d="M222,149.26a5.77,5.77,0,0,1,4.37,1.78,6.39,6.39,0,0,1,0,8.64,6.25,6.25,0,0,1-8.74,0,6.39,6.39,0,0,1,0-8.64A5.77,5.77,0,0,1,222,149.26Zm0,10.89a4.51,4.51,0,0,0,3.44-1.39,5.22,5.22,0,0,0,0-6.8,5,5,0,0,0-6.88,0,5.22,5.22,0,0,0,0,6.8A4.51,4.51,0,0,0,222,160.15Z" fill="#203832"/><path d="M237.26,149.26a5.77,5.77,0,0,1,4.37,1.78,6.39,6.39,0,0,1,0,8.64,6.25,6.25,0,0,1-8.74,0,6.39,6.39,0,0,1,0-8.64A5.77,5.77,0,0,1,237.26,149.26Zm0,10.89a4.51,4.51,0,0,0,3.44-1.39,5.22,5.22,0,0,0,0-6.8,5,5,0,0,0-6.88,0,5.22,5.22,0,0,0,0,6.8A4.51,4.51,0,0,0,237.26,160.15Z" fill="#203832"/><path d="M257.55,149.4v11.92H256l-7.36-10.06v10.06h-1.35V149.4h1.56l7.37,10v-10Z" fill="#203832"/></g></g></svg>