<svg xmlns="http://www.w3.org/2000/svg" viewBox="0 0 179.84 179.84"><g id="Layer_2" data-name="Layer 2"><g id="Layer_1-2" data-name="Layer 1"><circle cx="89.92" cy="89.92" r="89.92" fill="#627890"/><path d="M76.14,85l1.49.87.5-1.65C78.49,83,81.56,72.58,80,68.6a8.49,8.49,0,0,0-11-4.82,8.47,8.47,0,0,0-4.82,11C65.76,78.76,75.08,84.33,76.14,85ZM66.83,69.37a5.79,5.79,0,0,1,5.27-3.45,5.77,5.77,0,0,1,5.37,3.67c.8,2-.34,7.91-1.46,12.09-3.66-2.31-8.47-5.85-9.27-7.9A5.72,5.72,0,0,1,66.83,69.37Z" fill="#f0ece7"/><path d="M100.25,104.55a24.1,24.1,0,0,0-7.46-3.66,1.36,1.36,0,1,0-.75,2.62,21.36,21.36,0,0,1,6.62,3.25,1.35,1.35,0,0,0,1.9-.31A1.36,1.36,0,0,0,100.25,104.55Z" fill="#f0ece7"/><path d="M84.53,100a31,31,0,0,0-6.2,1.07c-.59.17-1.18.31-1.75.45a1.36,1.36,0,0,0,.31,2.69,1.54,1.54,0,0,0,.3,0c.61-.14,1.24-.3,1.87-.47a27.6,27.6,0,0,1,5.64-1,1.36,1.36,0,0,0-.17-2.72Z" fill="#f0ece7"/><path d="M160.08,121.59h-5.9a69.82,69.82,0,1,0-132-31.67,69.3,69.3,0,0,0,7.61,31.67h-2.5a1.37,1.37,0,0,0,0,2.73h4a69.79,69.79,0,0,0,121.48,0h7.38a1.37,1.37,0,0,0,0-2.73Zm-9,0H117.85a1.37,1.37,0,1,0,0,2.73h31.7a67.06,67.06,0,0,1-115.18,0H62l6.19,15.84a3.11,3.11,0,0,0,1.65,1.73,3.27,3.27,0,0,0,1.26.26,3,3,0,0,0,1.13-.22l38.1-14.87a3.12,3.12,0,0,0,1.77-4l-8.36-21.43A30.31,30.31,0,1,0,86.81,58.38l-3-7.81a3.11,3.11,0,0,0-4-1.77L41.62,63.68a3.12,3.12,0,0,0-1.77,4l21,53.87H32.83a67.1,67.1,0,1,1,118.27,0ZM55.58,97.42a13.36,13.36,0,0,1-2.28-2.76L42.39,66.73a.38.38,0,0,1,.23-.51l38.1-14.88.14,0a.65.65,0,0,1,.16,0,.41.41,0,0,1,.21.22l4,10.23a30.26,30.26,0,0,0,.72,23.88,29.72,29.72,0,0,1-10.61,8.49,26.6,26.6,0,0,0-9.62,8,21.08,21.08,0,0,1-3.91-1,1.36,1.36,0,1,0-.92,2.56,24.12,24.12,0,0,0,3.24.89,25.15,25.15,0,0,0-3,10.12L55.24,99.62a1.26,1.26,0,0,0,.38-.27A1.37,1.37,0,0,0,55.58,97.42ZM104,112a23.26,23.26,0,0,1,2.06,3.15l3.46,8.88a.39.39,0,0,1-.22.51L71.19,139.4a.4.4,0,0,1-.51-.23l-5.8-14.85h4.6a1.37,1.37,0,0,0,0-2.73H64.1c-.56-3.15-1.13-10.11,2.89-16.53.68,0,1.38.08,2.08.09h0a1.37,1.37,0,0,0,0-2.73h-.15a25.14,25.14,0,0,1,7.64-5.84,33,33,0,0,0,10.73-8.31,30.52,30.52,0,0,0,12.89,11.89l3.92,10A1.35,1.35,0,0,0,104,112ZM85.83,72.89a27.59,27.59,0,1,1,27.59,27.59A27.63,27.63,0,0,1,85.83,72.89Z" fill="#f0ece7"/><path d="M137.3,72.89a23.88,23.88,0,1,0-23.88,23.88A23.9,23.9,0,0,0,137.3,72.89ZM112.4,90.26V94a21.11,21.11,0,0,1-13.12-5.41l2.48-2.48a1.36,1.36,0,1,0-1.93-1.92l-2.45,2.45a21,21,0,0,1-5.07-12.41h3.4a1.36,1.36,0,0,0,0-2.72h-3.4A21.1,21.1,0,0,1,97.83,58.6l2.48,2.49a1.41,1.41,0,0,0,1,.4,1.37,1.37,0,0,0,1-2.33L99.8,56.72a21.07,21.07,0,0,1,12.6-5v3.76a1.36,1.36,0,1,0,2.72,0V51.81a21.06,21.06,0,0,1,12.07,5l-2.79,2.79a1.36,1.36,0,1,0,1.92,1.93l2.82-2.82a21.11,21.11,0,0,1,5.39,12.78h-4.08a1.36,1.36,0,1,0,0,2.72h4.08a21.11,21.11,0,0,1-4.94,12.26l-2.78-2.78a1.36,1.36,0,1,0-1.93,1.92l2.82,2.83A21.1,21.1,0,0,1,115.12,94V90.26a1.36,1.36,0,0,0-2.72,0Z" fill="#f0ece7"/><path d="M117.83,76.18l3-9.1a1.8,1.8,0,0,0-2.28-2.28l-9.1,3A1.82,1.82,0,0,0,108.33,69l-3,9.1a1.81,1.81,0,0,0,.43,1.85,1.84,1.84,0,0,0,1.28.53,1.88,1.88,0,0,0,.57-.09l9.1-3A1.82,1.82,0,0,0,117.83,76.18Zm-9.36,1,2.3-6.92,6.92-2.3-2.3,6.92Z" fill="#f0ece7"/></g></g></svg>