<svg xmlns="http://www.w3.org/2000/svg" viewBox="0 0 179.84 179.84"><g id="Layer_2" data-name="Layer 2"><g id="Layer_1-2" data-name="Layer 1"><circle cx="89.92" cy="89.92" r="89.92" fill="#203832"/><path d="M154.63,121.59h-2.5a69.82,69.82,0,1,0-124.43,0H25.2a1.37,1.37,0,0,0,0,2.73h4a69.79,69.79,0,0,0,121.48,0h4a1.37,1.37,0,0,0,0-2.73ZM22.82,89.92a67.1,67.1,0,1,1,126.23,31.67h-4.14l-28.58-32.7a1.61,1.61,0,0,0-1.17-.55,1.55,1.55,0,0,0-1.2.48L105,97.91,91.28,76.8v-7a2.73,2.73,0,0,0,.5,0h15.35a3.22,3.22,0,0,0,3.22-3.22V55.34a1.68,1.68,0,0,0-.78-1.57,1.89,1.89,0,0,0-1.94.16,2.15,2.15,0,0,1-.5.23H91.78a2.15,2.15,0,0,1-.5-.23V52.79a1.36,1.36,0,1,0-2.72,0v24.6L66.49,107.75,59.94,97.34a1.63,1.63,0,0,0-1.31-.75,1.52,1.52,0,0,0-1.36.65l-18,24.35H30.78A66.62,66.62,0,0,1,22.82,89.92Zm35.67,10.24,7.84,12.44L79.11,95c1.68-.23,7-.73,10,1.48a6.29,6.29,0,0,0,3.79,1.25c3,0,5.77-1.93,6.92-2.84l3.84,5.9h0l13.51,20.76H42.62ZM91.28,56.83a2.73,2.73,0,0,0,.5.05h15.35a2.73,2.73,0,0,0,.5-.05V66.6a.5.5,0,0,1-.5.5H91.78a.5.5,0,0,1-.5-.5ZM90.07,79.94l8.26,12.69c-.94.77-4.85,3.72-7.6,1.69S84,92,81.23,92.11Zm30.35,41.65-13.89-21.35,8.53-8.66,26.23,30ZM89.92,157a67.14,67.14,0,0,1-57.59-32.7H147.5A67.11,67.11,0,0,1,89.92,157Z" fill="#f0ece7"/><path d="M83.79,133.85H126a1.36,1.36,0,0,0,0-2.72H83.79a1.36,1.36,0,1,0,0,2.72Z" fill="#f0ece7"/><path d="M62.67,143.39H104.9a1.36,1.36,0,1,0,0-2.72H62.67a1.36,1.36,0,0,0,0,2.72Z" fill="#f0ece7"/><path d="M54.5,133.85h4.76a1.36,1.36,0,1,0,0-2.72H54.5a1.36,1.36,0,1,0,0,2.72Z" fill="#f0ece7"/><path d="M119.21,140.67h-4.77a1.36,1.36,0,0,0,0,2.72h4.77a1.36,1.36,0,0,0,0-2.72Z" fill="#f0ece7"/></g></g></svg>