<svg xmlns="http://www.w3.org/2000/svg" viewBox="0 0 179.84 179.84"><g id="Layer_2" data-name="Layer 2"><g id="Layer_1-2" data-name="Layer 1"><circle cx="89.92" cy="89.92" r="89.92" fill="#693019"/><path d="M154.63,121.59h-2.5a69.82,69.82,0,1,0-124.43,0H25.2a1.37,1.37,0,0,0,0,2.73h4a69.79,69.79,0,0,0,121.48,0h4a1.37,1.37,0,0,0,0-2.73ZM22.82,89.92a67.1,67.1,0,1,1,126.23,31.67H98.43V107h19.72a3.85,3.85,0,0,0,2.78-1.19l5.12-5.35a3.85,3.85,0,0,0,0-5.32l-5.12-5.35a3.88,3.88,0,0,0-2.78-1.18H98.43v-2h20.34a3.85,3.85,0,0,0,3.85-3.84V72a3.85,3.85,0,0,0-3.85-3.84H98.43V65.39h19.72a3.88,3.88,0,0,0,2.78-1.18l5.12-5.36a3.84,3.84,0,0,0,0-5.31l-5.12-5.35A3.85,3.85,0,0,0,118.15,47H98.43V43.9a2,2,0,0,0-2-2H90.22a2,2,0,0,0-2,2V47H67.88A3.86,3.86,0,0,0,64,50.85v10.7a3.85,3.85,0,0,0,3.85,3.84H88.21v2.73H68.5a3.83,3.83,0,0,0-2.78,1.19L60.6,74.66a3.84,3.84,0,0,0,0,5.31l5.12,5.36a3.86,3.86,0,0,0,2.78,1.18H88.21v2H67.88A3.85,3.85,0,0,0,64,92.4v10.7A3.86,3.86,0,0,0,67.88,107H88.21v14.64H30.78A66.62,66.62,0,0,1,22.82,89.92Zm68.12,31.67V107h4.77v14.64Zm27.21-71.86a1.13,1.13,0,0,1,.81.34l5.12,5.35a1.13,1.13,0,0,1,0,1.55L119,62.32a1.14,1.14,0,0,1-.81.35H67.88a1.12,1.12,0,0,1-1.12-1.12V50.85a1.12,1.12,0,0,1,1.12-1.12ZM90.94,47V44.62h4.77V47Zm0,18.39h4.77v2.73H90.94Zm27.83,5.45A1.12,1.12,0,0,1,119.89,72V82.67a1.12,1.12,0,0,1-1.12,1.12H68.5a1.12,1.12,0,0,1-.81-.35l-5.12-5.35a1.13,1.13,0,0,1,0-1.55l5.12-5.35a1.12,1.12,0,0,1,.81-.35ZM90.94,86.51h4.77v2H90.94Zm27.21,4.77a1.14,1.14,0,0,1,.81.35L124.08,97a1.12,1.12,0,0,1,0,1.54L119,103.88a1.13,1.13,0,0,1-.81.34H67.88a1.12,1.12,0,0,1-1.12-1.12V92.4a1.12,1.12,0,0,1,1.12-1.12ZM89.92,157a67.14,67.14,0,0,1-57.59-32.7H147.5A67.11,67.11,0,0,1,89.92,157Z" fill="#f0ece7"/><path d="M78.34,57.56h4.77a1.36,1.36,0,0,0,0-2.72H78.34a1.36,1.36,0,1,0,0,2.72Z" fill="#f0ece7"/><path d="M89.24,57.56h18.39a1.36,1.36,0,1,0,0-2.72H89.24a1.36,1.36,0,1,0,0,2.72Z" fill="#f0ece7"/><path d="M102.86,99.8h4.77a1.37,1.37,0,0,0,0-2.73h-4.77a1.37,1.37,0,0,0,0,2.73Z" fill="#f0ece7"/><path d="M78.34,99.8H96.73a1.37,1.37,0,0,0,0-2.73H78.34a1.37,1.37,0,0,0,0,2.73Z" fill="#f0ece7"/><path d="M78.34,78.68h29.29a1.37,1.37,0,0,0,0-2.73H78.34a1.37,1.37,0,0,0,0,2.73Z" fill="#f0ece7"/></g></g></svg>