<?xml version="1.0" encoding="utf-8"?>
<!-- Generator: Adobe Illustrator 23.1.1, SVG Export Plug-In . SVG Version: 6.00 Build 0)  -->
<svg version="1.1" id="Layer_1" xmlns="http://www.w3.org/2000/svg" xmlns:xlink="http://www.w3.org/1999/xlink" x="0px" y="0px"
	 viewBox="0 0 534.7 523.5" style="enable-background:new 0 0 534.7 523.5;" xml:space="preserve">
<style type="text/css">
	.st0{fill:#4A738C;}
</style>
<g>
	<g>
		<g id="Layer_1-2">
			<g>
				<path class="st0" d="M82.1,243.8c0.1-2.4-0.7-4.8-2.2-6.7l3-2.1c3.5,4.8,3.6,11.4,0.2,16.3c-1.5,2.2-3.6,4-6.1,5.1
					c-0.2,4.8-2.4,9.3-6,12.5c-3.6,3.1-8.2,4.7-12.9,4.5c-4.8,0-9.5-2-12.9-5.5c-7-7.6-6.6-19.3,0.8-26.4c3.6-3.3,8.4-5,13.2-4.7
					c4.3,0.1,8.5,1.7,11.8,4.5c3.3,2.8,5.4,6.7,5.9,11c2.2-1,3.9-2.9,4.6-5.2C81.9,246.1,82.1,245,82.1,243.8z M73.1,255.6
					c0.3-3.9-1.1-7.7-3.9-10.5c-2.7-2.7-6.4-4.1-10.2-4.1c-3.8-0.3-7.5,1-10.4,3.5c-5.8,5.6-6.1,14.8-0.7,20.8
					c2.7,2.7,6.4,4.2,10.2,4.1c3.8,0.3,7.5-1,10.4-3.5C71.5,263.3,73.2,259.6,73.1,255.6L73.1,255.6z"/>
				<path class="st0" d="M55.8,178.4l19.6,6.2c4.6,1.4,7.8,4,9.7,7.6c3.7,7.7,0.8,16.9-6.7,21.1c-3.7,1.8-7.8,2-12.3,0.6l-19.6-6.2
					l1.2-3.9l19.7,6.3c3.7,1.2,6.9,1,9.7-0.6c2.5-1.4,4.2-3.8,5-6.5c1-2.7,0.9-5.6-0.3-8.3c-1.3-2.9-3.9-4.9-7.6-6.1l-19.7-6.3
					L55.8,178.4z"/>
				<path class="st0" d="M115.8,144.4l-2.4,3.8l-11.2-1.9l-9.6,15.1l6.5,9.3l-2.4,3.8l-22.2-32.2l2.7-4.3L115.8,144.4z M98.2,145.6
					l-18.8-3.2L90.3,158L98.2,145.6z"/>
				<path class="st0" d="M106,102.2l22.3,23.2l14.2-13.6l2.7,2.8L128,131l-25-26L106,102.2z"/>
				<path class="st0" d="M164.1,101.2l-3.4,2.2l-19.9-30.1l3.4-2.2L164.1,101.2z"/>
				<path class="st0" d="M194.9,50.3l-11.6,4.9l12.4,29.6l-3.7,1.6l-12.4-29.6L168,61.6l-1.6-3.6l27-11.3L194.9,50.3z"/>
				<path class="st0" d="M239.9,72.8l-4,0.6l-2.2-14.1l-18.3-19.2l4.9-0.8L235,54.8l9.4-19.2l4.9-0.8l-11.6,23.8L239.9,72.8z"/>
				<path class="st0" d="M314.8,73c4.7,1.3,9.6-0.5,12.5-4.4l4.2,1c-1.8,2.9-4.5,5.2-7.6,6.4c-3.5,1.4-7.3,1.6-10.9,0.6
					c-4.8-1-8.8-4-11.2-8.2c-2.2-4.2-2.7-9.2-1.5-13.8c1-4.7,3.7-8.8,7.6-11.6c4-2.7,9-3.6,13.7-2.3c3.6,0.8,6.9,2.7,9.4,5.5
					c2.2,2.6,3.6,5.8,3.9,9.2l-4.2-1c-0.4-2.3-1.4-4.4-3-6.2c-1.6-1.8-3.8-3-6.1-3.5c-2.1-0.6-4.3-0.7-6.5-0.4c-1.8,0.3-3.4,1-4.9,2
					c-3,2.2-5.1,5.5-5.9,9.2c-1,3.6-0.7,7.5,1,10.8C307.1,69.7,310.3,71.9,314.8,73z"/>
				<path class="st0" d="M390.7,70.4l-9.9,18c-2.3,4.2-5.4,6.9-9.3,8c-8.3,2.1-16.7-2.6-19.3-10.7c-1.1-3.9-0.5-8,1.9-12.2l9.9-18
					l3.6,2l-10,18c-1.9,3.4-2.3,6.6-1.4,9.6c0.9,2.7,2.9,4.9,5.4,6.2c2.4,1.5,5.4,2,8.2,1.3c3.1-0.7,5.6-2.8,7.5-6.3l10-18
					L390.7,70.4z"/>
				<path class="st0" d="M414.6,95.9c-0.8-0.1-1.6,0.1-2.4,0.5c-0.7,0.4-1.3,0.9-1.9,1.4c-0.6,0.6-0.9,1.5-0.8,2.4
					c0.1,1.1,0.3,2.2,0.8,3.2c0.6,1.3,1.2,2.5,2,3.7c0.8,1.3,1.7,2.6,2.5,4c0.8,1.4,1.6,2.7,2.4,4.1c0.7,1.3,1.2,2.7,1.6,4.1
					c0.8,2.6,0.1,5.5-1.9,7.5c-2,2.3-5,3.5-8.1,3c-3.1-0.4-6.2-2.2-9.4-5.3c-3.7-3.5-5.7-6.9-6.2-10.2c-0.4-3.1,0.6-6.3,2.7-8.6
					l3.1,2.9c-1.6,1.8-2.1,4.3-1.3,6.6c0.9,2.6,2.4,4.8,4.5,6.6c4.9,4.7,8.8,5.5,11.7,2.4c1-1,1.3-2.4,1-3.7c-0.4-1.6-1-3.2-1.9-4.7
					c-0.9-1.7-2-3.4-3.2-5.2c-1.2-1.7-2.2-3.5-3-5.4c-0.8-1.7-1.2-3.5-1.3-5.3c0-1.8,0.8-3.6,2.1-4.8c1.9-2.1,4.6-3.1,7.4-2.9
					c2.9,0.2,6,1.9,9.3,5s5.1,6.3,5.5,9.6c0.4,2.8-0.4,5.6-2.3,7.7l-3-2.9c1.8-2.4,1.8-5.2-0.1-8.3c-0.8-1.3-1.8-2.5-3-3.6
					c-1.1-1.1-2.4-2-3.8-2.7C416.7,96.3,415.7,96,414.6,95.9z"/>
				<path class="st0" d="M463.1,153.3l-6.8-10.6l-27,17.4l-2.2-3.4l27-17.4l-6.8-10.6l3.3-2.1l15.8,24.6L463.1,153.3z"/>
				<path class="st0" d="M483.3,189.6c1.7,4.7,1.4,9.9-0.9,14.3c-4.9,8.8-15.6,12.3-24.8,8.3c-9.2-4.7-12.9-15.8-8.4-25.1
					c4.9-8.8,15.6-12.4,24.8-8.3C478.5,180.9,481.9,184.8,483.3,189.6z M452,200c1.1,3.8,3.7,6.9,7.3,8.5c7.2,2.9,15.5,0.2,19.5-6.5
					c3.5-7.3,0.5-16-6.6-19.7c-7.2-2.9-15.5-0.2-19.5,6.5C450.9,192.3,450.7,196.3,452,200z"/>
				<path class="st0" d="M495,271.7l-36,1.2l-0.1-4.1l29.8-1L471.1,255l16.7-14.1l-29.8,1l-0.1-4.1l36-1.2l0.2,4.7l-16.7,13.5
					l17.5,12.1L495,271.7z"/>
				<path class="st0" d="M60.2,362.5l-2.2-4.1l26.4-27l2,3.8l-22.2,22.5l31.2-5.9l2.2,4.1l-22,22.9l31-6.2l2,3.8l-37,7.3l-2.2-4.1
					l22-23L60.2,362.5z"/>
				<path class="st0" d="M133.8,401.9c3.7,3.3,5.8,8,5.9,13c-0.2,10-8,18.2-18,18.9c-10.3,0.1-18.8-8-19.1-18.3
					c0.2-10,8-18.2,18-18.9C125.5,396.4,130.3,398.4,133.8,401.9z M111,425.8c2.7,2.8,6.5,4.3,10.4,4.1c7.8-0.8,13.8-7.1,14.2-14.9
					c-0.3-8-7-14.4-15-14.4c-7.8,0.8-13.8,7.1-14.2,14.9C106.4,419.4,108.1,423.1,111,425.8z"/>
				<path class="st0" d="M179.2,434.3c4.5,2.1,7.9,6.1,9.3,10.8c2.6,9.7-2.5,19.7-11.9,23.2c-9.8,3-20.3-2.3-23.5-12.1
					c-2.6-9.7,2.5-19.8,11.9-23.3C169.7,431.4,174.9,431.8,179.2,434.3z M164.2,463.6c3.4,1.9,7.5,2.3,11.2,1
					c7.2-2.9,11.2-10.7,9.4-18.3c-2.6-7.6-10.8-11.8-18.5-9.5c-7.2,2.9-11.2,10.7-9.4,18.3C158,458.8,160.7,461.9,164.2,463.6
					L164.2,463.6z"/>
				<path class="st0" d="M231.2,452.6c2.1,0.4,4.1,1.2,5.9,2.4c1.8,1.2,3.3,2.7,4.5,4.5c5.2,8.7,3.1,19.9-5,26
					c-1.8,1.2-3.7,2.1-5.9,2.5c-2.1,0.4-4.2,0.4-6.3,0l-14.9-2.9l6.8-35.4L231.2,452.6z M225,484.1c3.5,0.8,7.1-0.1,9.8-2.4
					c5.6-4.9,7.1-13,3.8-19.6c-1.7-3.1-4.7-5.3-8.2-5.9l-10.7-2.1l-5.3,27.8L225,484.1z"/>
				<path class="st0" d="M288.3,487.5c4.8-0.3,9-3.5,10.5-8.1l4.3-0.4c-0.8,3.3-2.6,6.3-5.2,8.5c-2.9,2.4-6.4,3.8-10.1,4
					c-4.8,0.6-9.6-1-13.2-4.3c-6.8-7.1-7.7-17.9-2.2-26c3-3.8,7.5-6.2,12.3-6.4c3.7-0.4,7.4,0.4,10.6,2.3c2.9,1.8,5.2,4.4,6.6,7.5
					l-4.3,0.4c-1.1-2.1-2.7-3.8-4.8-4.9c-2.1-1.2-4.5-1.6-6.9-1.4c-2.2,0.1-4.3,0.7-6.3,1.6c-1.6,0.8-2.9,2-4,3.4
					c-4.2,6.4-3.5,14.9,1.7,20.5C280,486.8,283.7,487.9,288.3,487.5z"/>
				<path class="st0" d="M338.4,481.1l-3.8,1.4l-12.5-33.8l16.2-6c3-1.3,6.3-1.3,9.3-0.2c2.9,1.2,5.1,3.6,6,6.5
					c1.6,4.2,0.9,7.7-2.1,10.6c-0.8,0.8-1.6,1.4-2.5,2l13.9,10.4l-4.5,1.7l-13-9.9l-11.7,4.4L338.4,481.1z M332.3,464.5l11.7-4.3
					c3.6-1.3,5.7-3.4,6.2-6.1c0.2-1.2,0-2.4-0.4-3.5c-0.6-2-2.1-3.5-4.1-4.3c-2.1-0.7-4.4-0.6-6.5,0.3l-11.9,4.4L332.3,464.5z"/>
				<path class="st0" d="M416.1,438.5l-3.7,2.6l-9.7-5.9l-14.5,10.4l2.5,11.1l-3.7,2.6l-8.6-38.2l4.2-3L416.1,438.5z M399.3,433.1
					l-16.2-10l4.3,18.6L399.3,433.1z"/>
				<path class="st0" d="M415.1,394.1l9.6,8l12.5-15l3.1,2.5l-12.5,15l12,10l-2.6,3.1l-27.7-23l16.6-20l3,2.5L415.1,394.1z"/>
				<path class="st0" d="M452.2,335l-5.5,11.3l28.9,14l-1.8,3.7L445,350l-5.5,11.3l-3.5-1.7l12.8-26.3L452.2,335z"/>
				<path class="st0" d="M389.2,140.8c-66.7-66.9-175-67-241.8-0.3s-67,175-0.3,241.8s175,67,241.8,0.3
					c49.2-49.1,63.8-123.1,36.9-187.2C417.2,175,404.8,156.5,389.2,140.8z M420.6,326.9c-36,84.8-133.9,124.5-218.8,88.5
					S77.4,281.5,113.4,196.6s133.9-124.5,218.8-88.5c61.8,26.2,101.9,86.9,101.7,154.1C433.8,284.5,429.3,306.5,420.6,326.9z"/>
				<path class="st0" d="M533.7,324.1l-10-2.5c-0.7-0.2-1.1-0.8-0.9-1.5c32.1-141-56.2-281.2-197.2-313.3S44.4,63,12.3,204
					c-8.6,37.8-8.7,76.9-0.3,114.7c0.2,0.7-0.3,1.3-0.9,1.5c0,0,0,0,0,0L1,322.6c-0.7,0.1-1.1,0.8-1,1.5c0,0,0,0,0,0l0.6,2.6
					c0.2,0.7,0.8,1.1,1.5,0.9c0,0,0,0,0,0l10.1-2.4c0.7-0.2,1.3,0.3,1.5,0.9c35.7,140.2,178.3,224.8,318.5,189.1
					c79.1-20.2,144.2-76,176.2-151c5.1-11.9,9.3-24.1,12.6-36.6c0.2-0.7,0.8-1.1,1.5-0.9c0,0,0,0,0,0l10,2.4
					c0.7,0.2,1.4-0.2,1.5-0.9c0,0,0,0,0,0l0.7-2.6C534.9,324.9,534.5,324.3,533.7,324.1C533.8,324.1,533.8,324.1,533.7,324.1z
					 M503.6,362.3C448.1,492.6,297.4,553.4,167,497.8C93.4,466.5,38.6,402.6,18.9,325.1c-0.2-0.7,0.2-1.4,0.9-1.5c0,0,0,0,0,0
					l40.6-9.7c0.7-0.2,1.1-0.8,0.9-1.5l-0.6-2.6c-0.2-0.7-0.8-1.1-1.5-0.9l-40.6,9.7c-0.7,0.2-1.4-0.2-1.5-0.9c0,0,0,0,0,0
					C13,299,10.9,280,11,261.1C11.5,119.4,126.7,4.9,268.4,5.3c103,0.3,195.8,62.3,235.7,157.2c13.3,31.6,20,65.6,19.9,99.9
					c0,19-2.2,37.9-6.4,56.4c-0.2,0.7-0.8,1.1-1.5,0.9c0,0,0,0,0,0l-40.6-9.9c-0.7-0.2-1.3,0.2-1.5,0.9c0,0,0,0,0,0l-0.6,2.6
					c-0.2,0.7,0.2,1.3,0.9,1.5c0,0,0,0,0,0l40.6,9.9c0.7,0.2,1.1,0.9,0.9,1.5c0,0,0,0,0,0C512.6,338.7,508.6,350.6,503.6,362.3
					L503.6,362.3z"/>
				<path class="st0" d="M175.2,189.8l0-2.7c0-0.7,0.6-1.3,1.3-1.3l190.9,0.5c0.7,0,1.3,0.6,1.3,1.3l0,2.7c0,0.7-0.6,1.3-1.3,1.3
					l-190.9-0.5C175.8,191.1,175.2,190.5,175.2,189.8z"/>
				<path class="st0" d="M174.8,347.7l0-2.7c0-0.7,0.6-1.3,1.3-1.3l190.9,0.5c0.7,0,1.3,0.6,1.3,1.3l0,2.7c0,0.7-0.6,1.3-1.3,1.3
					L176.1,349C175.4,349,174.8,348.4,174.8,347.7z"/>
				<path class="st0" d="M175.1,279.1l-0.1,31.8h-3.6l0.1-26.3l-11.8,15.1l-11.9-15.1l-0.1,26.3h-3.6l0.1-31.8h4.2l11.3,15.1
					l11.2-15L175.1,279.1z"/>
				<path class="st0" d="M224.1,311h-4l-3.9-9.2h-15.7l-3.9,9.2h-4l13.6-31.7h4.5L224.1,311z M214.9,298.5l-6.4-15.5l-6.5,15.4
					L214.9,298.5z"/>
				<path class="st0" d="M254.7,292l14.2,19h-4.5L252,294.5l-6.6,6.1V311h-3.6l0.1-31.8h3.6v16.5l17.7-16.5h5.1L254.7,292z"/>
				<path class="st0" d="M289.9,282.8v10.6h17.6v3.5h-17.6v10.7l19.8,0v3.5l-23.4-0.1l0.1-31.8l23.4,0.1v3.5L289.9,282.8z"/>
				<path class="st0" d="M332.6,311.2H329l0.1-31.8h15.2c2.8-0.1,5.6,0.8,7.8,2.7c2,1.9,3.1,4.5,2.9,7.2c0,4-1.7,6.7-5,8.1
					c-0.9,0.4-1.8,0.7-2.7,0.9l8.3,12.8h-4.3l-7.6-12.2h-11L332.6,311.2z M332.6,295.7h11c3.4,0,5.7-1,7-3.1c0.5-0.9,0.8-2,0.7-3.1
					c0.1-1.8-0.7-3.6-2-4.8c-1.5-1.2-3.5-1.9-5.5-1.8h-11.2L332.6,295.7z"/>
				<path class="st0" d="M378.5,284.5c-0.6,0.5-1,1.1-1.2,1.8c-0.2,0.6-0.3,1.3-0.3,2c0,0.8,0.4,1.5,0.9,2c0.7,0.7,1.6,1.2,2.5,1.5
					c1.1,0.5,2.3,0.8,3.5,1.1l4,1c1.4,0.3,2.7,0.7,4,1.2c1.2,0.4,2.4,1,3.5,1.7c2.1,1.2,3.4,3.5,3.4,5.9c0.1,2.7-1.1,5.3-3.4,6.8
					c-2.2,1.6-5.3,2.3-9.2,2.3c-4.4,0-7.8-0.9-10.1-2.8c-2.1-1.8-3.4-4.3-3.5-7.1h3.7c0.1,2.1,1.3,4,3.1,5c2.1,1.1,4.5,1.6,6.9,1.5
					c5.9,0,8.9-1.9,8.9-5.6c0-1.2-0.6-2.3-1.6-3c-1.2-0.8-2.6-1.4-4-1.8c-1.6-0.5-3.4-0.9-5.2-1.4c-1.8-0.4-3.5-0.9-5.2-1.6
					c-1.5-0.6-2.9-1.5-4-2.6c-1.1-1.2-1.7-2.7-1.6-4.4c0-2.5,1.1-4.8,3-6.3c2-1.6,5-2.4,9-2.4c4,0,7.1,0.9,9.3,2.8
					c2,1.5,3.1,3.8,3.2,6.3h-3.7c-0.3-2.6-2-4.4-5.1-5.2c-1.3-0.4-2.7-0.5-4.1-0.5c-1.4,0-2.8,0.1-4.1,0.5
					C380.2,283.4,379.3,283.9,378.5,284.5z"/>
				<path class="st0" d="M168.4,232.3c0,3.5-1.4,5.8-4.2,7.1c3.5,0.9,6,4.2,5.8,7.8c0,3.8-2,6.3-6.1,7.6c-1.5,0.5-3.1,0.7-4.7,0.7
					h-14.9l0.1-31.5h14.1c3.4,0,6,0.9,7.8,2.8C167.6,228.2,168.4,230.2,168.4,232.3z M147.9,238h10.6c2.9,0,4.9-1,5.9-3
					c0.4-0.7,0.5-1.5,0.5-2.2c0-0.7-0.1-1.5-0.3-2.1c-0.2-0.6-0.5-1.2-1-1.6c-1.2-1.2-2.9-1.8-4.6-1.7h-10.9L147.9,238z M159.6,252
					c1.8,0.1,3.5-0.4,5-1.3c1.2-0.9,1.8-2.3,1.8-3.8c0-1.5-0.6-2.9-1.7-3.9c-1.5-1.2-3.5-1.8-5.5-1.7h-11.4V252L159.6,252z"/>
				<path class="st0" d="M193,227.5V238l17.5,0.1v3.5l-17.5-0.1v10.6l19.6,0.1v3.4l-23.1-0.1l0.1-31.5l23.2,0.1v3.4L193,227.5z"/>
				<path class="st0" d="M244.8,255.6h-3.6v-12.5L228,224.1h4.3l10.6,15.3l10.7-15.3h4.3l-13.2,19V255.6z"/>
				<path class="st0" d="M287.8,223.9c4.3-0.1,8.5,1.6,11.5,4.7c5.9,6.5,5.8,16.4-0.1,22.8c-6.4,6.3-16.7,6.2-23.1-0.1
					c-5.9-6.5-5.8-16.4,0.1-22.8C279.3,225.5,283.5,223.8,287.8,223.9z M287.7,252.7c3.4,0.1,6.7-1.2,9.1-3.6c4.5-5.2,4.5-12.8,0-18
					c-5.1-4.9-13.1-4.9-18.2,0c-4.5,5.2-4.5,12.8,0,18C281.1,251.5,284.3,252.8,287.7,252.7L287.7,252.7z"/>
				<path class="st0" d="M350.3,224.5l-0.1,31.5h-4.1l-19.4-26.6l-0.1,26.6H323l0.1-31.5h4.1l19.4,26.5l0.1-26.5L350.3,224.5z"/>
				<path class="st0" d="M384.9,224.6c1.9,0,3.7,0.4,5.4,1.1c1.7,0.7,3.3,1.8,4.6,3.1c5.9,6.6,5.9,16.5-0.1,23.1
					c-1.3,1.3-2.9,2.4-4.6,3.1c-1.7,0.7-3.6,1-5.4,1h-13.3l0.1-31.5L384.9,224.6z M384.7,252.7c3.1,0.1,6-1.3,8-3.6
					c4-5.1,4-12.3,0-17.4c-2-2.4-4.9-3.8-8-3.7h-9.6l-0.1,24.7L384.7,252.7z"/>
				<path class="st0" d="M194.5,168.2h-2.7l0.1-23.9h2.7L194.5,168.2z"/>
				<path class="st0" d="M223.8,144.3l-0.1,23.9h-3.1L205.9,148l-0.1,20.2h-2.7l0.1-23.9h3.1l14.7,20.2l0.1-20.1L223.8,144.3z"/>
				<path class="st0" d="M242.5,144.4c1.4,0,2.8,0.3,4.1,0.8c1.3,0.5,2.5,1.4,3.5,2.4c4.5,5,4.5,12.6,0,17.6c-1,1-2.2,1.8-3.5,2.4
					c-1.3,0.5-2.7,0.8-4.1,0.8h-10.1l0.1-23.9L242.5,144.4z M242.3,165.7c2.4,0.1,4.6-0.9,6.1-2.8c3-3.9,3-9.4,0-13.2
					c-1.5-1.8-3.7-2.9-6.1-2.8H235l0,18.8L242.3,165.7z"/>
				<path class="st0" d="M263.2,168.4h-2.7l0.1-24h10.8c2.2-0.1,4.3,0.7,6,2.1c2.9,3.2,2.9,8.1,0,11.2c-1.7,1.4-3.8,2.2-6,2.1h-8.1
					L263.2,168.4z M263.2,147v10.3h7.9c1.6,0.1,3.1-0.4,4.3-1.4c1.9-2.2,1.9-5.4,0-7.6c-1.2-1-2.7-1.5-4.3-1.4H263.2z"/>
				<path class="st0" d="M288.7,144.5l-0.1,21.4h13.1v2.6H286l0.1-24L288.7,144.5z"/>
				<path class="st0" d="M310.7,148.2c-0.4,0.3-0.7,0.8-0.9,1.3c-0.2,0.5-0.2,1-0.2,1.5c0,0.6,0.3,1.1,0.7,1.5
					c0.5,0.5,1.2,0.9,1.9,1.2c0.9,0.3,1.7,0.6,2.6,0.8l3,0.8c1,0.2,2,0.6,3,0.9c0.9,0.3,1.8,0.7,2.6,1.3c1.6,0.9,2.6,2.6,2.6,4.5
					c0.1,2-0.9,4-2.5,5.1c-2.1,1.3-4.5,1.9-7,1.8c-3.4,0-5.9-0.7-7.7-2.1c-1.6-1.3-2.6-3.3-2.7-5.4h2.9c0.1,1.6,1,3,2.4,3.8
					c1.6,0.8,3.4,1.2,5.2,1.1c4.5,0,6.7-1.4,6.8-4.2c0-0.9-0.4-1.8-1.2-2.3c-0.9-0.6-1.9-1.1-3-1.4c-1.2-0.4-2.5-0.7-3.9-1
					c-1.3-0.3-2.7-0.7-3.9-1.2c-1.1-0.5-2.1-1.1-3-2c-0.8-0.9-1.3-2.1-1.2-3.3c0-1.9,0.8-3.6,2.2-4.8c1.5-1.2,3.8-1.8,6.8-1.8
					c3,0,5.4,0.7,7,2.1c1.5,1.1,2.4,2.9,2.4,4.7h-2.8c-0.2-2-1.5-3.3-3.8-4c-1-0.3-2-0.4-3-0.4c-1,0-2.1,0.1-3.1,0.4
					C312,147.4,311.3,147.7,310.7,148.2z"/>
				<path class="st0" d="M336.8,158.9h-1.6v-14h1.6V158.9z"/>
				<path class="st0" d="M353.3,144.9v14h-1.8l-8.6-11.8v11.8h-1.6v-14h1.8l8.6,11.8v-11.8L353.3,144.9z"/>
				<path class="st0" d="M267.8,378.5c0,1.1-0.3,2.1-0.9,3c-0.7,1-1.4,1.9-2.3,2.7c-1,0.9-2,1.7-3.1,2.4c-1.1,0.7-2.1,1.5-3.1,2.2
					c-0.9,0.6-1.7,1.3-2.4,2.1c-0.6,0.5-1,1.3-1.1,2.1h12.9v2.6l-16.1,0V394c0-1.2,0.3-2.3,1-3.2c0.7-1,1.5-1.9,2.5-2.8
					c1-0.9,2.1-1.7,3.2-2.4c1.2-0.8,2.2-1.5,3.2-2.3c0.9-0.7,1.8-1.5,2.5-2.4c0.6-0.7,1-1.6,1-2.6c0.1-1.3-0.4-2.5-1.4-3.3
					c-1.1-0.9-2.5-1.3-3.9-1.2c-1.4-0.1-2.8,0.3-4,1c-1,0.7-1.7,1.8-1.8,3.1h-2.7c0.2-1.9,1.2-3.7,2.7-4.8c1.6-1.3,3.6-1.9,5.7-1.9
					c2.2-0.1,4.3,0.6,6,2C267.1,374.7,267.9,376.6,267.8,378.5z"/>
				<path class="st0" d="M273.9,383.6c0-8.2,2.8-12.3,8.4-12.2c2.8-0.1,5.4,1.4,6.7,3.9c1.1,2,1.7,4.8,1.7,8.4
					c0,8.2-2.8,12.3-8.4,12.2S273.9,391.8,273.9,383.6z M282.3,393.3c3.2-0.1,5-2.1,5.5-6.2c0.2-1.1,0.2-2.2,0.2-3.4
					c0-3.2-0.4-5.7-1.3-7.2c-1.5-2.4-4.7-3.1-7.1-1.6c-0.6,0.4-1.2,0.9-1.6,1.6c-0.9,1.6-1.4,4-1.4,7.2s0.4,5.7,1.3,7.2
					C278.8,392.5,280.5,393.4,282.3,393.3z"/>
				<path class="st0" d="M307.7,371.8l-0.1,24h-2.7l0.1-21.4h-5.1v-2.6L307.7,371.8z"/>
				<path class="st0" d="M331.5,382.6c1.3,0.5,2.5,1.4,3.4,2.5c0.8,1,1.2,2.3,1.2,3.5c0,1.1-0.2,2.2-0.6,3.1c-0.4,0.9-1,1.6-1.7,2.3
					c-3.8,2.7-8.9,2.7-12.7,0c-1.5-1.3-2.3-3.2-2.2-5.2c0-1.4,0.4-2.7,1.2-3.8c0.8-1.2,2-2,3.4-2.5c-0.9-0.4-1.8-0.9-2.4-1.7
					c-0.8-0.9-1.3-2.1-1.2-3.4c0-1.7,0.7-3.3,2-4.4c3.5-2.2,7.9-2.2,11.4,0c1.3,1.1,2,2.7,1.9,4.4c0.1,1.8-0.9,3.5-2.4,4.4
					C332.4,382.2,332,382.4,331.5,382.6z M327.5,393.5c1.5,0.1,3-0.3,4.3-1.2c1-0.8,1.6-2,1.6-3.4c0-1.4-0.6-2.8-1.7-3.7
					c-2.5-1.7-5.8-1.7-8.2,0c-1.1,0.9-1.8,2.2-1.8,3.6c-0.1,1.3,0.5,2.6,1.6,3.4C324.5,393.1,326,393.5,327.5,393.5L327.5,393.5z
					 M327.5,381.5c1.2,0,2.3-0.3,3.3-0.9c1-0.6,1.6-1.6,1.6-2.8c0.1-1.1-0.5-2.1-1.4-2.7c-1.1-0.7-2.3-1-3.5-0.9
					c-1.2-0.1-2.5,0.2-3.5,0.9c-0.9,0.6-1.4,1.6-1.4,2.7c0,1.1,0.5,2.2,1.5,2.7C325.1,381.1,326.3,381.4,327.5,381.5L327.5,381.5z"
					/>
				<path class="st0" d="M205.2,373.3v4.7h7.8v1.5h-7.8v4.7h8.7v1.5h-10.3v-14h10.3v1.5L205.2,373.3z"/>
				<path class="st0" d="M218.9,373.9c-0.2,0.2-0.4,0.5-0.5,0.8c-0.1,0.3-0.1,0.6-0.1,0.9c0,0.3,0.2,0.6,0.4,0.9
					c0.3,0.3,0.7,0.5,1.1,0.7c0.5,0.2,1,0.4,1.5,0.5l1.8,0.4c0.6,0.1,1.2,0.3,1.8,0.5c0.5,0.2,1.1,0.4,1.5,0.7
					c0.9,0.5,1.5,1.5,1.5,2.6c0.1,1.2-0.5,2.3-1.5,3c-1.2,0.7-2.6,1.1-4.1,1c-1.6,0.1-3.2-0.3-4.5-1.2c-0.9-0.8-1.5-1.9-1.6-3.1h1.6
					c0,0.9,0.6,1.8,1.4,2.2c0.9,0.5,2,0.7,3,0.7c2.6,0,3.9-0.8,3.9-2.5c0-0.5-0.2-1-0.7-1.3c-0.5-0.4-1.1-0.6-1.8-0.8
					c-0.7-0.2-1.5-0.4-2.3-0.6c-0.8-0.2-1.6-0.4-2.3-0.7c-0.7-0.3-1.3-0.6-1.8-1.1c-0.5-0.5-0.7-1.2-0.7-1.9c0-1.1,0.5-2.1,1.3-2.8
					c1.2-0.8,2.5-1.2,3.9-1.1c1.5-0.1,2.9,0.4,4.1,1.2c0.9,0.7,1.4,1.7,1.4,2.8h-1.6c-0.2-1.2-1.1-2.1-2.2-2.3
					c-0.6-0.2-1.2-0.2-1.8-0.2c-0.6,0-1.2,0.1-1.8,0.2C219.6,373.5,219.2,373.7,218.9,373.9z"/>
				<path class="st0" d="M241.1,373.4h-4.9v12.4h-1.6v-12.5h-4.9v-1.5h11.3L241.1,373.4z"/>
			</g>
		</g>
	</g>
</g>
</svg>
